<?xml version="1.0" encoding="UTF-8" standalone="no"?>
<svg
   version="1.1"
   width="647.00006"
   height="647"
   id="svg99"
   sodipodi:docname="icon.svg"
   inkscape:export-filename="icon.svg"
   inkscape:export-xdpi="96"
   inkscape:export-ydpi="96"
   inkscape:version="1.4.3 (0d15f75042, 2025-12-25)"
   xmlns:inkscape="http://www.inkscape.org/namespaces/inkscape"
   xmlns:sodipodi="http://sodipodi.sourceforge.net/DTD/sodipodi-0.dtd"
   xmlns="http://www.w3.org/2000/svg"
   xmlns:svg="http://www.w3.org/2000/svg">
  <defs
     id="defs99" />
  <sodipodi:namedview
     id="namedview99"
     pagecolor="#ffffff"
     bordercolor="#000000"
     borderopacity="0.25"
     inkscape:showpageshadow="2"
     inkscape:pageopacity="0.0"
     inkscape:pagecheckerboard="0"
     inkscape:deskcolor="#d1d1d1"
     inkscape:zoom="1.1391036"
     inkscape:cx="338.86296"
     inkscape:cy="360.3711"
     inkscape:window-width="1646"
     inkscape:window-height="995"
     inkscape:window-x="0"
     inkscape:window-y="0"
     inkscape:window-maximized="1"
     inkscape:current-layer="svg99">
    <inkscape:page
       x="0"
       y="0"
       width="647.00006"
       height="647"
       id="page2"
       margin="0"
       bleed="0" />
  </sodipodi:namedview>
  <path
     d="m 143.30506,0.18615765 c 1.5833,-0.005 3.1666,-0.0108 4.7977,-0.0151 4.3543,-0.0108 8.7081,-0.0108 13.0623,-0.005 4.7122,0.002 9.4246,-0.01 14.1367,-0.0181 9.2182,-0.0164 18.4363,-0.0189 27.6547,-0.0158 7.5016,0.002 15.0033,5e-5 22.5052,-0.005 1.6056,-0.001 1.6056,-0.001 3.2436,-0.002 2.1752,-0.001 4.3502,-0.002 6.5255,-0.005 20.3764,-0.0141 40.7528,-0.0116 61.1293,-0.003 18.5925,0.006 37.1851,-0.008 55.7776,-0.0326 19.1349,-0.0252 38.2699,-0.0359 57.4047,-0.0309 10.7249,0.002 21.4497,-6.6e-4 32.1746,-0.0191 9.1356,-0.0155 18.2709,-0.017 27.4065,-0.001 4.6502,0.008 9.3001,0.01 13.9502,-0.006 48.9665,-0.13246 48.9665,-0.13246 70.8846,8.52432005 1.0266,0.39062 2.0534,0.78122 3.1112,1.1837 35.04921,13.7773193 62.84631,40.7122693 77.89845,74.6183003 8.2993,19.734162 11.9607,39.887272 11.8873,61.233072 0,1.58785 0.013,3.17568 0.015,4.81163 0.013,4.35598 0.013,8.7117 0,13.06767 0,4.71804 0.013,9.43606 0.018,14.1541 0.017,9.22385 0.018,18.44763 0.015,27.67149 0,7.50437 0,15.00875 0,22.51311 8e-4,1.07129 0,2.1426 0,3.24635 0,2.1769 0,4.35382 0,6.53073 0.014,20.38101 0.013,40.76201 0,61.14303 -0.013,18.60426 0.013,37.20842 0.032,55.81265 0.025,19.147 0.037,38.29398 0.031,57.44097 0,10.73185 6e-4,21.4636 0.019,32.19543 0.015,9.13735 0.017,18.2746 0,27.41195 -0.013,4.65252 -0.013,9.30482 0.013,13.95734 0.1498,46.97187 -8.8078,87.31718 -42.75044,122.1183 -28.789,28.43959 -67.00011,39.10703 -106.87611,39.32098 -4.4097,0.005 -8.8188,1.3e-4 -13.2284,-0.0116 -4.798,-0.01 -9.5963,0.005 -14.3946,0.0154 -9.3688,0.0171 -18.7374,0.0136 -28.1062,0.002 -7.6204,-0.01 -15.2408,-0.0108 -22.8613,-0.005 -1.0892,6e-4 -2.1783,10e-4 -3.3004,10e-4 -2.2134,0.001 -4.4269,0.002 -6.6402,0.003 -20.6976,0.0116 -41.3953,-10e-4 -62.093,-0.0226 -17.722,-0.0173 -35.4439,-0.0143 -53.166,0.003 -20.6333,0.0209 -41.2666,0.029 -61.8999,0.017 -2.204,-10e-4 -4.4079,-0.002 -6.6117,-0.003 -1.0842,-6.2e-4 -2.1682,-0.001 -3.2853,-0.001 -7.6039,-0.003 -15.2078,0.002 -22.8119,0.0117 -9.277,0.0108 -18.5537,0.008 -27.8305,-0.0131 -4.7245,-0.0108 -9.4486,-0.0143 -14.1728,-10e-4 -36.4116,0.0918 -36.4116,0.0918 -52.4454,-4.4074 -1.2041,-0.3365 -2.4082,-0.67299 -3.6488,-1.01969 -2.983496,-0.87913 -5.881796,-1.87329 -8.795996,-2.95256 -1.0456,-0.3858 -2.0913,-0.77161 -3.1687,-1.16913 -32.7637,-12.67981 -60.47154,-38.62438 -75.24497,-70.02284 -9.3136403,-21.1877 -13.52411034,-43.28763 -13.49168034,-66.28493 0,-1.55674 0,-3.11346 -0.0133,-4.71735 -0.0133,-4.29912 -0.0133,-8.5982 -0.0133,-12.89731 2.7e-4,-4.64562 0,-9.29125 -0.0133,-13.93687 -0.0133,-9.09512 -0.0145,-18.19019 -0.0157,-27.2853 -5.4e-4,-7.39942 0,-14.79883 -0.0133,-22.19825 -0.0133,-21.00751 -0.0172,-42.01501 -0.0172,-63.02254 1.3e-4,-1.1316 1.3e-4,-2.26319 2.6e-4,-3.4291 0,-1.13299 0,-2.266 1.4e-4,-3.43333 5.3e-4,-18.34129 -0.0133,-36.68258 -0.0303,-55.02389 -0.0184,-18.86096 -0.0277,-37.72193 -0.0263,-56.58291 4e-4,-10.57746 0,-21.15487 -0.0171,-31.73232 -0.0133,-9.01033 -0.0144999963,-18.02058 0,-27.03089 0,-4.58923 0,-9.17837 -0.0133,-13.76759 C -0.11615634,116.22106 8.2356837,75.945248 44.096264,38.708747 70.685964,13.368898 106.47396,0.06439765 143.26776,0.18841765 Z"
     fill="#ede6d9"
     id="path2"
     style="stroke-width:1.30782" />
  <path
     d="m 333.56223,161.35876 c 4.25327,1.31382 7.07492,3.54821 9.46065,7.27436 0.51313,2.73552 0.26097,3.91593 -1.1371,6.3196 -0.58915,0.80478 -1.18082,1.60772 -1.77386,2.40964 -3.95268,5.72026 -8.00517,11.74845 -8.00517,18.91334 0.72234,-0.39478 1.44468,-0.78955 2.18891,-1.19629 0.99841,-0.52634 1.99719,-1.05199 2.99626,-1.57706 0.70498,-0.38892 0.70498,-0.38892 1.4242,-0.78569 8.68847,-4.50784 17.85328,-4.7671 27.40689,-4.64735 1.83272,0.0228 3.665,0.0299 5.49786,0.0341 16.42994,0.0785 16.42994,0.0785 17.9775,1.62538 0.51634,5.29226 -2.22627,8.85894 -5.0942,13.09387 -1.15454,1.37972 -2.26427,2.47147 -3.6387,3.63717 0.65819,0.25652 0.65819,0.25652 1.32969,0.51823 25.00336,9.85545 44.22936,24.19754 55.41428,49.17476 3.37571,7.93951 5.16331,16.01943 6.56957,24.50552 0.12742,0.6758 0.25482,1.3516 0.38608,2.04788 2.00287,13.58103 1.13785,29.15532 -2.5693,42.32574 -0.17566,0.63191 -0.35132,1.26381 -0.5323,1.91485 -3.78884,13.20775 -9.49842,24.70009 -18.38899,35.18442 -0.46401,0.55505 -0.46401,0.55505 -0.93739,1.12133 -16.29043,19.32834 -39.90911,29.46664 -64.10455,34.75037 -0.84751,0.18537 -1.69503,0.37075 -2.56823,0.56174 -10.16367,2.11976 -20.16909,2.27586 -30.51293,2.29543 -2.23218,0.007 -4.46385,0.0296 -6.6959,0.0526 -9.64356,0.0509 -18.8587,-0.78128 -28.35778,-2.40963 -0.9758,-0.1569 -1.95174,-0.31295 -2.92785,-0.46798 -21.55384,-3.56445 -41.67313,-13.68899 -57.47474,-28.62952 -0.64447,-0.58889 -1.28895,-1.17777 -1.95296,-1.7845 -17.76192,-16.82267 -26.54832,-41.42659 -27.3557,-65.54884 -0.52396,-27.10118 6.08386,-51.89565 25.0298,-71.93486 10.92583,-11.24553 24.64184,-18.27226 39.21048,-23.67757 -0.57975,-0.69906 -0.57975,-0.69906 -1.17121,-1.41225 -7.66183,-9.37761 -7.66183,-9.37761 -7.37976,-13.81844 0.18012,-0.73517 0.36023,-1.47033 0.54581,-2.22778 3.65476,-0.72626 7.17484,-0.86705 10.88485,-0.90077 0.62676,-0.006 1.25351,-0.0117 1.89926,-0.0178 1.32668,-0.01 2.65337,-0.0178 3.98007,-0.0236 1.33283,-0.008 2.66563,-0.0231 3.99832,-0.0447 11.1756,-0.18116 21.95036,0.60825 32.04427,5.8971 0.69726,0.34462 0.69726,0.34462 1.40859,0.69619 1.09783,0.54456 2.1881,1.10435 3.27625,1.66799 0.0188,-0.66109 0.0375,-1.32218 0.0568,-2.0033 0.47969,-10.62521 2.44343,-23.92464 10.43855,-31.72304 3.02946,-1.92245 5.68256,-1.70894 9.15362,-1.19061 z"
     fill="#e24f40"
     id="path3"
     style="stroke-width:0.727581" />
  <path
     d="m 379.40998,207.18725 c 12.78583,2.09516 25.03431,9.35392 34.93161,17.45847 0.92873,0.74829 0.92873,0.74829 1.87623,1.5117 16.3423,13.86972 24.53584,33.83072 27.96119,54.50091 0.12742,0.6758 0.25482,1.3516 0.38608,2.04788 2.00287,13.58104 1.13785,29.15532 -2.5693,42.32574 -0.17566,0.63191 -0.35132,1.2638 -0.5323,1.91485 -3.78884,13.20775 -9.49842,24.7001 -18.38899,35.18441 -0.30934,0.37005 -0.61868,0.74009 -0.93739,1.12134 -16.29043,19.32834 -39.90911,29.46664 -64.10455,34.75036 -0.84751,0.18538 -1.69503,0.37076 -2.56823,0.56175 -10.16367,2.11977 -20.16909,2.27587 -30.51293,2.29543 -2.23218,0.007 -4.46385,0.0296 -6.6959,0.0526 -9.64356,0.0509 -18.8587,-0.78127 -28.35778,-2.40963 -0.9758,-0.1569 -1.95174,-0.31295 -2.92785,-0.46797 -21.55384,-3.56443 -41.67313,-13.68898 -57.47474,-28.6295 -0.64447,-0.5889 -1.28895,-1.17777 -1.95296,-1.7845 -17.76192,-16.82267 -26.54832,-41.4266 -27.3557,-65.54885 -0.52396,-27.10118 6.08386,-51.89565 25.0298,-71.93486 9.63376,-9.91565 25.26818,-21.57738 39.48339,-22.63187 3.24948,0.50402 4.09885,1.68607 6.27677,4.04637 -0.55818,0.12565 -1.11634,0.2513 -1.69144,0.38076 -20.57633,5.20762 -38.52357,17.48273 -50.02373,35.35455 -13.93031,23.37125 -15.93536,50.52339 -9.63813,76.62058 2.23896,8.75257 5.52522,16.68381 10.09297,24.49309 0.26478,0.4569 0.52957,0.91379 0.80236,1.38454 8.51151,14.00183 33.58139,21.81657 48.72816,25.66238 1.78588,0.42929 3.57473,0.83731 5.36851,1.23216 0.54715,0.1212 1.09431,0.2424 1.65804,0.36727 18.75303,3.91098 40.17581,3.28132 58.74455,-1.0947 0.99363,-0.22224 0.99363,-0.22224 2.00733,-0.44897 17.9113,-4.08006 34.24325,-11.54576 48.20687,-23.55643 1.05536,-0.89598 1.05536,-0.89598 2.13206,-1.81007 16.58292,-14.40327 26.87305,-35.47012 29.88859,-57.11228 0.0747,-1.90299 0.1192,-3.78608 0.12223,-5.68878 0.002,-0.53824 0.005,-1.07649 0.007,-1.63104 0.004,-1.1359 0.005,-2.27181 0.005,-3.40775 0.001,-1.70955 0.0147,-3.41877 0.0286,-5.12828 0.0637,-16.78118 -4.19076,-33.32733 -13.80578,-47.22085 -1.64008,-2.39259 -1.64008,-2.39259 -2.89372,-4.60331 -4.56025,-7.53836 -12.37947,-9.85044 -20.37395,-12.51134 -2.34021,-0.54304 -3.98288,-0.60475 -6.34499,-0.28132 -0.94421,0.12097 -0.94421,0.12097 -1.90749,0.24439 -0.46623,0.0694 -0.93247,0.13878 -1.41284,0.21026 1.51843,-1.51778 2.89204,-2.30641 4.7758,-3.31892 2.11541,-1.06239 2.11541,-1.06239 3.9571,-2.50057 z"
     fill="#d13b30"
     id="path5"
     style="stroke-width:0.727581" />
  <path
     d="m 353.71159,272.88385 c 1.0599,0.87778 2.10602,1.77245 3.13839,2.68242 0.54598,0.47729 1.09195,0.95459 1.65448,1.44635 7.86172,7.33542 14.34572,18.46062 15.22394,29.39938 0.52032,17.26681 -2.76473,30.0379 -14.43934,43.25618 -8.45341,8.92592 -20.10044,14.4401 -32.41011,14.96075 -1.51698,0.017 -3.03423,0.0176 -4.55123,0.002 -1.19565,-0.008 -1.19565,-0.008 -2.41544,-0.0166 -5.89891,-0.12016 -10.7667,-0.75808 -16.18747,-3.2113 -0.73265,-0.30852 -1.46531,-0.61702 -2.22017,-0.93488 -12.70167,-5.79158 -21.92043,-16.32267 -27.14819,-29.12303 -4.61472,-13.28882 -3.92157,-27.62839 2.13845,-40.28339 5.97269,-11.74838 16.25086,-21.1525 28.6854,-25.68031 0.61165,-0.23162 1.22329,-0.46324 1.85347,-0.70187 15.50799,-4.86102 33.7886,-1.40925 46.67782,8.20355 z"
     fill="#fdfbfb"
     id="path6"
     style="stroke-width:0.727581" />
  <path
     d="m 333.56223,161.35876 c 4.25327,1.31382 7.07492,3.54821 9.46065,7.27436 0.51313,2.73552 0.26097,3.91593 -1.1371,6.3196 -0.58915,0.80478 -1.18082,1.60772 -1.77386,2.40964 -3.95268,5.72026 -8.00517,11.74845 -8.00517,18.91334 0.72234,-0.39478 1.44468,-0.78955 2.18891,-1.19629 0.99841,-0.52634 1.99719,-1.05199 2.99626,-1.57706 0.46998,-0.25928 0.93997,-0.51855 1.4242,-0.78569 8.68847,-4.50784 17.85328,-4.7671 27.40689,-4.64735 1.83272,0.0228 3.665,0.0299 5.49786,0.0341 16.42994,0.0785 16.42994,0.0785 17.9775,1.62538 0.54503,5.87359 -2.92255,10.4178 -6.4985,14.82437 -3.18143,3.36527 -6.70357,5.88698 -10.96731,7.72617 -0.48031,0 -0.96062,0 -1.45548,0 -0.24016,0.72016 -0.48031,1.44032 -0.72775,2.1823 -2.43993,1.68848 -5.11179,1.8486 -8.00515,2.18231 0.22514,0.4351 0.45029,0.8702 0.68225,1.31847 0.77322,1.59127 0.77322,1.59127 1.50097,3.77358 0.6154,0.61514 1.2308,1.23029 1.86483,1.86406 0.58539,0.58513 1.17077,1.17027 1.77388,1.77312 0,0.48011 0,0.96022 0,1.45488 0.48031,0 0.96062,0 1.45549,0 3.05513,6.24651 3.97337,12.72738 3.6387,19.64078 -0.72774,0.72744 -0.72774,0.72744 -2.61247,0.82404 -4.99776,-0.0116 -9.8934,-0.19732 -14.85333,-0.82404 0,-0.48011 0,-0.96022 0,-1.45488 -0.95687,0.052 -0.95687,0.052 -1.93307,0.10514 -2.60326,-0.11247 -4.1102,-0.655 -6.43596,-1.78733 -0.65292,-0.31226 -1.30584,-0.62451 -1.97855,-0.94623 -0.66793,-0.33289 -1.33587,-0.66579 -2.02404,-1.00875 -0.7064,-0.33569 -1.41278,-0.6714 -2.14058,-1.01727 -6.00913,-3.14523 -11.87113,-7.39733 -16.7807,-12.07659 0,-0.4801 0,-0.96021 0,-1.45486 -3.30651,1.00988 -4.43543,2.43525 -6.54968,5.09205 -7.03782,5.81949 -7.03782,5.81949 -10.91614,5.81949 0,0.48011 0,0.96022 0,1.45488 -2.18322,1.45486 -2.18322,1.45486 -4.36645,1.45486 0,0.48012 0,0.96022 0,1.45488 -9.58665,4.63751 -18.42875,6.39009 -29.10968,5.09206 -0.72775,-0.72744 -0.72775,-0.72744 -0.90968,-3.228 0.13072,-6.1846 2.70892,-11.59812 5.23065,-17.14022 0.36656,-0.82346 0.36656,-0.82346 0.74054,-1.66357 0.24249,-0.51625 0.485,-1.03251 0.73484,-1.56444 0.21477,-0.46416 0.42954,-0.92832 0.65081,-1.40656 1.03768,-1.48095 2.09132,-1.95526 3.74123,-2.6398 0,-0.96021 0,-1.92043 0,-2.90975 -0.51033,0.0487 -1.02066,0.0975 -1.54646,0.14776 -2.67463,-0.18888 -4.17475,-1.12582 -6.4587,-2.51192 -0.73546,-0.43885 -1.47095,-0.8777 -2.22871,-1.32985 -2.13774,-1.39806 -2.13774,-1.39806 -4.07934,-2.98933 -2.02301,-1.57167 -3.54316,-1.81156 -6.06356,-2.04592 0.4803,-0.4801 0.96061,-0.96021 1.45548,-1.45487 -0.3865,-0.46604 -0.77299,-0.93208 -1.17121,-1.41225 -7.66183,-9.37762 -7.66183,-9.37762 -7.37976,-13.81845 0.27018,-1.10276 0.27018,-1.10276 0.54581,-2.22779 3.65476,-0.72625 7.17484,-0.86705 10.88485,-0.90076 0.62676,-0.006 1.25351,-0.0117 1.89926,-0.0178 1.32668,-0.01 2.65337,-0.0178 3.98007,-0.0236 1.33283,-0.008 2.66563,-0.0231 3.99832,-0.0447 11.1756,-0.18116 21.95036,0.60825 32.04427,5.8971 0.69726,0.34462 0.69726,0.34462 1.40859,0.69618 1.09783,0.54457 2.1881,1.10435 3.27625,1.668 0.0188,-0.6611 0.0375,-1.32218 0.0568,-2.0033 0.47969,-10.62521 2.44343,-23.92465 10.43855,-31.72304 3.02946,-1.92245 5.68256,-1.70894 9.15362,-1.19061 z"
     fill="#7dab5a"
     id="path7"
     style="stroke-width:0.727581" />
  <path
     d="m 379.40998,207.18725 c 12.78583,2.09516 25.03431,9.35392 34.93161,17.45847 0.92873,0.74829 0.92873,0.74829 1.87623,1.5117 16.3423,13.86972 24.53584,33.83072 27.96119,54.50091 0.12742,0.6758 0.25482,1.3516 0.38608,2.04788 2.00287,13.58104 1.13785,29.15532 -2.5693,42.32574 -0.17566,0.63191 -0.35132,1.2638 -0.5323,1.91485 -3.78884,13.20775 -9.49842,24.7001 -18.38899,35.18441 -0.30934,0.37005 -0.61868,0.74009 -0.93739,1.12134 -16.29043,19.32834 -39.90911,29.46664 -64.10455,34.75036 -0.84751,0.18538 -1.69503,0.37076 -2.56823,0.56175 -10.16367,2.11977 -20.16909,2.27587 -30.51293,2.29543 -2.23218,0.007 -4.46385,0.0296 -6.6959,0.0526 -9.64356,0.0509 -18.8587,-0.78127 -28.35778,-2.40963 -0.9758,-0.1569 -1.95174,-0.31295 -2.92785,-0.46797 -21.55384,-3.56443 -41.67313,-13.68898 -57.47474,-28.6295 -0.64447,-0.5889 -1.28895,-1.17777 -1.95296,-1.7845 -17.76192,-16.82267 -26.54832,-41.4266 -27.3557,-65.54885 -0.52396,-27.10118 6.08386,-51.89565 25.0298,-71.93486 9.63376,-9.91565 25.26818,-21.57738 39.48339,-22.63187 3.24948,0.50402 4.09885,1.68607 6.27677,4.04637 -0.55818,0.12565 -1.11634,0.2513 -1.69144,0.38076 -20.57633,5.20762 -38.52357,17.48273 -50.02373,35.35455 -13.93031,23.37125 -15.93536,50.52339 -9.63813,76.62058 5.80637,22.69832 19.54847,41.10746 39.53064,53.37387 4.23195,2.49715 8.62332,4.63192 13.08975,6.67267 0.83211,0.38821 1.66421,0.77642 2.52151,1.1764 33.76276,14.65348 79.6426,13.96334 113.84365,0.90148 4.54122,-1.85033 8.87052,-4.0994 13.17291,-6.4425 0.77019,-0.41166 1.54037,-0.82331 2.33389,-1.24744 20.06789,-11.17336 34.37363,-28.98211 40.88592,-51.00047 0.41137,-1.49285 0.79667,-2.98994 1.17246,-4.49214 0.21248,-0.82828 0.21248,-0.82828 0.42926,-1.6733 5.80836,-23.45617 3.17953,-50.79433 -9.07547,-71.94162 -11.13237,-17.91988 -28.35618,-31.28128 -48.95343,-36.63431 -2.74408,-0.48511 -5.19335,-0.18693 -7.89714,0.40633 1.51842,-1.51778 2.89204,-2.30641 4.7758,-3.31892 2.11541,-1.06239 2.11541,-1.06239 3.9571,-2.50057 z"
     fill="#a92b25"
     id="path8"
     style="stroke-width:0.727581" />
  <path
     d="m 333.56223,161.35876 c 4.25327,1.31382 7.07492,3.54821 9.46065,7.27436 0.51313,2.73552 0.26097,3.91593 -1.1371,6.3196 -0.58915,0.80478 -1.18082,1.60772 -1.77386,2.40964 -3.95268,5.72026 -8.00517,11.74845 -8.00517,18.91334 0.72234,-0.39478 1.44468,-0.78955 2.18891,-1.19629 0.99841,-0.52634 1.99719,-1.05199 2.99626,-1.57706 0.46998,-0.25928 0.93997,-0.51855 1.4242,-0.78569 8.68847,-4.50784 17.85328,-4.7671 27.40689,-4.64735 1.83272,0.0228 3.665,0.0299 5.49786,0.0341 16.42994,0.0785 16.42994,0.0785 17.9775,1.62538 0.54503,5.87359 -2.92255,10.4178 -6.4985,14.82437 -3.18143,3.36527 -6.70357,5.88698 -10.96731,7.72617 -0.48031,0 -0.96062,0 -1.45548,0 -0.24016,0.72016 -0.48031,1.44032 -0.72775,2.1823 -2.43993,1.68848 -5.11179,1.8486 -8.00515,2.18231 0.22514,0.4351 0.45029,0.8702 0.68225,1.31847 0.77322,1.59127 0.77322,1.59127 1.50097,3.77358 0.6154,0.61514 1.2308,1.23029 1.86483,1.86406 0.58539,0.58513 1.17077,1.17027 1.77388,1.77312 0,0.48011 0,0.96022 0,1.45488 0.48031,0 0.96062,0 1.45549,0 3.05513,6.24651 3.97337,12.72738 3.6387,19.64078 -0.72774,0.72744 -0.72774,0.72744 -2.61247,0.82404 -4.99776,-0.0116 -9.8934,-0.19732 -14.85333,-0.82404 0,-0.48011 0,-0.96022 0,-1.45488 -0.95687,0.052 -0.95687,0.052 -1.93307,0.10514 -2.60326,-0.11247 -4.1102,-0.655 -6.43596,-1.78733 -0.65292,-0.31226 -1.30584,-0.62451 -1.97855,-0.94623 -0.66793,-0.33289 -1.33587,-0.66579 -2.02404,-1.00875 -0.7064,-0.33569 -1.41278,-0.6714 -2.14058,-1.01727 -6.00913,-3.14523 -11.87113,-7.39733 -16.7807,-12.07659 0,-0.4801 0,-0.96021 0,-1.45486 -3.30651,1.00988 -4.43543,2.43525 -6.54968,5.09205 -7.03782,5.81949 -7.03782,5.81949 -10.91614,5.81949 0,0.48011 0,0.96022 0,1.45488 -2.18322,1.45486 -2.18322,1.45486 -4.36645,1.45486 0,0.48012 0,0.96022 0,1.45488 -9.58665,4.63751 -18.42875,6.39009 -29.10968,5.09206 -0.72775,-0.72744 -0.72775,-0.72744 -0.90968,-3.228 0.13072,-6.1846 2.70892,-11.59812 5.23065,-17.14022 0.36656,-0.82346 0.36656,-0.82346 0.74054,-1.66357 0.24249,-0.51625 0.485,-1.03251 0.73484,-1.56444 0.21477,-0.46416 0.42954,-0.92832 0.65081,-1.40656 1.03768,-1.48095 2.09132,-1.95526 3.74123,-2.6398 0,-0.96021 0,-1.92043 0,-2.90975 -0.51033,0.0487 -1.02066,0.0975 -1.54646,0.14776 -2.67463,-0.18888 -4.17475,-1.12582 -6.4587,-2.51192 -0.73546,-0.43885 -1.47095,-0.8777 -2.22871,-1.32985 -2.13774,-1.39806 -2.13774,-1.39806 -4.07934,-2.98933 -2.02301,-1.57167 -3.54316,-1.81156 -6.06356,-2.04592 0.4803,-0.4801 0.96061,-0.96021 1.45548,-1.45487 -0.3865,-0.46604 -0.77299,-0.93208 -1.17121,-1.41225 -7.66183,-9.37762 -7.66183,-9.37762 -7.37976,-13.81845 0.27018,-1.10276 0.27018,-1.10276 0.54581,-2.22779 3.65476,-0.72625 7.17484,-0.86705 10.88485,-0.90076 0.62676,-0.006 1.25351,-0.0117 1.89926,-0.0178 1.32668,-0.01 2.65337,-0.0178 3.98007,-0.0236 1.33283,-0.008 2.66563,-0.0231 3.99832,-0.0447 11.1756,-0.18116 21.95036,0.60825 32.04427,5.8971 0.69726,0.34462 0.69726,0.34462 1.40859,0.69618 1.09783,0.54457 2.1881,1.10435 3.27625,1.668 0.0188,-0.6611 0.0375,-1.32218 0.0568,-2.0033 0.47969,-10.62521 2.44343,-23.92465 10.43855,-31.72304 3.02946,-1.92245 5.68256,-1.70894 9.15362,-1.19061 z m -7.81469,7.89097 c -5.38195,9.17713 -6.18492,19.35951 -6.46724,29.75385 -0.0282,0.8627 -0.0563,1.72539 -0.0853,2.61424 -0.0677,2.09884 -0.1302,4.19771 -0.18762,6.29686 -0.96062,0 -1.92125,0 -2.91097,0 -0.42777,-0.99022 -0.42777,-0.99022 -0.86419,-2.00044 -3.42038,-6.13052 -11.39089,-9.11546 -17.87517,-10.95702 -6.59362,-1.70989 -13.10643,-1.70335 -19.87645,-1.6822 -0.90292,-0.003 -1.80585,-0.006 -2.73614,-0.008 -4.23833,0.004 -8.32948,0.0462 -12.50096,0.8269 4.62354,7.82953 10.2748,12.95241 18.9213,16.00359 2.54437,0.60126 4.88465,0.81375 7.4963,0.79849 0.71061,-0.002 1.42123,-0.004 2.15338,-0.007 1.09969,-0.009 1.09969,-0.009 2.22161,-0.0185 0.7472,-0.004 1.4944,-0.007 2.26424,-0.01 1.83788,-0.009 3.67567,-0.0206 5.5135,-0.0355 0,1.20027 0,2.40054 0,3.63718 -0.56287,0.256 -1.12573,0.51198 -1.70565,0.77575 -9.91092,4.6959 -15.79852,10.65675 -19.71726,21.04734 -0.74127,2.133 -1.13709,3.54943 -1.13709,5.81949 15.79845,-1.10819 30.10683,-7.91202 40.75355,-19.64078 0.52534,-0.70517 1.05068,-1.41032 1.59193,-2.13685 0.43529,-0.49511 0.87057,-0.99022 1.31903,-1.50033 0.96062,0 1.92124,0 2.91097,0 0.18763,0.4154 0.37525,0.83081 0.56856,1.25881 4.97764,9.26539 15.96426,15.68457 25.67423,18.87463 5.25538,1.53197 10.53163,2.53022 15.96625,3.14452 -1.12435,-8.93287 -5.4756,-16.7156 -12.37162,-22.55052 -3.23319,-2.02647 -6.68805,-3.58899 -10.18838,-5.09206 0,-1.20027 0,-2.40054 0,-3.63718 0.43246,0.008 0.86494,0.0152 1.3105,0.0231 1.98893,0.0306 3.97783,0.0493 5.96691,0.0679 0.68013,0.0122 1.36025,0.0244 2.06099,0.0369 8.46956,0.0592 16.17742,-2.41557 22.95514,-7.67502 2.37096,-2.36995 4.50137,-4.87821 6.27677,-7.72901 0,-0.48011 0,-0.96022 0,-1.45487 -5.65968,-0.6908 -11.26679,-0.88366 -16.96547,-0.9093 -0.82507,-0.015 -1.65013,-0.03 -2.50019,-0.0455 -5.91945,-0.027 -11.21954,0.85451 -16.92144,2.40964 -0.62019,0.16233 -1.24039,0.32468 -1.8794,0.49194 -5.86056,1.59667 -11.50391,5.3167 -14.85866,10.4196 -0.36022,0.72017 -0.36022,0.72017 -0.72774,1.45488 -1.86483,0.45465 -1.86483,0.45465 -3.6387,0.72743 0.46908,-13.64603 2.92642,-25.48444 11.64387,-36.37182 0.24258,-1.93983 0.24258,-1.93983 -0.72775,-3.63718 -2.06318,-1.35926 -3.82465,-2.06344 -6.23129,-2.5915 -2.17736,0.50226 -3.17036,1.43377 -4.49437,3.20811 z"
     fill="#567b3d"
     id="path9"
     style="stroke-width:0.727581" />
  <path
     d="m 357.39295,269.0165 c 11.35052,8.82798 18.11447,20.31508 21.28929,34.19236 0.20967,0.8777 0.20967,0.8777 0.42357,1.77313 2.31161,14.16622 -1.75927,29.47209 -9.88421,41.14562 -9.2714,12.74962 -21.35804,20.15027 -36.61452,23.50529 -15.22966,2.29361 -29.85593,-0.68131 -42.49048,-9.61864 -1.83725,-1.41464 -3.58187,-2.88791 -5.31307,-4.42998 -0.55255,-0.48385 -1.10509,-0.96772 -1.67438,-1.46623 -9.9984,-9.32102 -16.17259,-22.49988 -16.78924,-36.1786 -0.35811,-18.2857 4.39542,-31.56598 17.0991,-44.96467 20.40667,-19.95163 51.3788,-20.36091 73.95394,-3.95828 z m -69.67845,7.27721 c -0.46342,0.40322 -0.92685,0.80643 -1.40432,1.22187 -5.80514,5.39006 -9.55468,12.57527 -12.42279,19.87379 -0.23358,0.58419 -0.46717,1.16839 -0.70782,1.77028 -4.08486,12.17341 -1.56101,26.13971 3.61879,37.51129 6.89172,12.84997 18.08191,22.40812 32.09741,26.65372 4.4372,1.15964 8.68051,1.35184 13.25001,1.30712 0.79957,-0.006 1.59913,-0.0121 2.42291,-0.0182 6.1316,-0.12728 11.29903,-0.81799 16.99871,-3.2097 0.83865,-0.33664 1.67734,-0.67328 2.54142,-1.02012 12.12612,-5.42397 21.53756,-15.81902 26.56826,-28.07735 0.28612,-0.69484 0.57224,-1.38968 0.86704,-2.10558 4.50628,-12.97954 3.11881,-27.33185 -2.74041,-39.56856 -7.07529,-13.02364 -18.12681,-21.54279 -32.02633,-25.99165 -17.5323,-5.02719 -35.588,-0.31428 -49.06288,11.65315 z"
     fill="#aa2b26"
     id="path10"
     style="stroke-width:0.727581" />
  <path
     d="m 439.39185,418.10403 c 4.03655,2.41182 7.19089,5.59464 8.42588,10.22389 0.4636,4.69906 0.14651,8.92074 -2.18323,13.09386 -2.79716,3.40052 -5.59111,5.54391 -10.04625,6.0525 -4.85259,0.18144 -7.92524,-0.14995 -11.78601,-3.14275 -3.52509,-3.43882 -5.29561,-6.92887 -5.36709,-11.86631 0.096,-4.45629 1.13752,-7.81286 4.24705,-11.07068 4.79886,-4.1881 10.57713,-5.68315 16.70965,-3.29051 z"
     fill="#5e5b55"
     id="path11"
     style="stroke-width:0.727581" />
  <path
     d="m 336.2003,417.87102 c 0.70827,-0.0178 1.41655,-0.0356 2.14628,-0.054 4.57895,-0.0184 8.17839,0.51416 11.95373,3.23652 3.37462,3.40925 3.90239,6.56735 4.04806,11.32073 -0.16239,4.41331 -0.46079,7.1175 -3.32032,10.50236 -4.8721,3.77678 -8.68055,3.76983 -14.60033,3.77358 -1.11235,0.0134 -1.11235,0.0134 -2.24719,0.027 -0.7078,10e-4 -1.4156,0.002 -2.14484,0.004 -0.64923,0.002 -1.29846,0.006 -1.96736,0.009 -1.60029,-0.17685 -1.60029,-0.17685 -3.05578,-1.63172 -0.14528,-1.91272 -0.20365,-3.74718 -0.1933,-5.66036 -0.001,-0.55962 -0.002,-1.11922 -0.004,-1.69578 -6.3e-4,-1.18384 0.001,-2.36769 0.008,-3.5515 0.008,-1.81534 8e-5,-3.63015 -0.009,-5.44547 6.3e-4,-1.14894 0.002,-2.29787 0.006,-3.4468 -0.002,-0.54484 -0.006,-1.08968 -0.009,-1.65102 0.0611,-6.7252 3.80367,-5.72978 9.38996,-5.73701 z"
     fill="#5d5a55"
     id="path12"
     style="stroke-width:0.727581" />
  <path
     d="m 245.36901,418.28021 c 3.7367,2.1239 6.21834,4.76416 8.14161,8.59284 0.68161,5.13756 0.70717,10.34953 -2.03257,14.87835 -2.00303,2.56593 -4.45691,4.23685 -7.42807,5.48987 -5.97762,0.70457 -10.06602,-0.25281 -15.10065,-3.45532 -3.56998,-3.56848 -3.99053,-6.87523 -4.18452,-11.77538 0.10658,-4.55669 0.79896,-7.64631 4.00258,-10.95701 5.17904,-4.03795 10.36858,-4.71398 16.60162,-2.77335 z"
     fill="#5d5954"
     id="path13"
     style="stroke-width:0.727581" />
  <path
     d="m 378.95515,418.28021 c 3.62815,2.50411 6.27755,5.11105 7.73225,9.32028 0.51643,5.01359 0.54358,10.14888 -2.18323,14.54873 -2.90086,3.34444 -6.23902,4.80868 -10.58353,5.30233 -4.2945,0.22499 -7.25259,-0.2194 -10.77114,-2.7563 -3.03997,-2.75202 -4.6569,-5.79596 -5.06861,-9.84881 -0.18819,-5.23289 -0.0821,-9.04136 3.26347,-13.22741 4.88976,-4.76212 11.22249,-5.58561 17.61079,-3.33882 z"
     fill="#5d5954"
     id="path14"
     style="stroke-width:0.727581" />
  <path
     d="m 314.17474,418.1012 c 4.2165,2.52725 6.85154,5.56058 8.47137,10.22672 0.84126,5.76248 -0.18014,10.56501 -3.63871,15.27617 -3.08651,3.23074 -6.21104,3.88023 -10.59775,4.04636 -4.70953,-0.20136 -7.47462,-1.00944 -10.86495,-4.40724 -3.6932,-4.18178 -3.64577,-8.28952 -3.5307,-13.64227 0.33596,-3.66333 1.31061,-5.94334 3.88888,-8.54738 4.72249,-3.682 10.49142,-5.25783 16.27186,-2.95236 z"
     fill="#5c5954"
     id="path15"
     style="stroke-width:0.727581" />
  <path
     d="m 321.19062,226.82803 c 2.91098,0 2.91098,0 4.50291,1.50033 0.30488,0.33102 0.60977,0.66204 0.92389,1.00308 2.3217,2.34421 5.03863,4.24895 7.67256,6.22583 0.7064,0.53589 0.7064,0.53589 1.42705,1.08263 2.3716,1.75465 4.57263,2.94898 7.30585,4.00943 1.32107,0.617 2.64005,1.23848 3.9571,1.86405 2.813,1.29192 5.29405,2.24766 8.41452,2.50056 0,0.48011 0,0.96022 0,1.45487 0.48312,-0.008 0.96625,-0.0169 1.46401,-0.0256 6.38256,-0.0652 6.38256,-0.0652 9.45212,0.75301 0.0309,1.69708 0.0297,3.39497 0,5.09206 -1.23485,1.23432 -2.71581,0.94089 -4.41194,1.00022 -12.18251,-0.14411 -25.97104,-6.68506 -34.88614,-14.82151 -0.71483,-0.81581 -0.71483,-0.81581 -1.4441,-1.64811 -1.31823,-1.40518 -1.31823,-1.40518 -2.84275,-1.28722 -2.1545,1.05687 -3.88849,2.54621 -5.71959,4.07194 -6.838,5.47383 -14.96071,9.74783 -23.46969,11.95724 -0.52533,0.14722 -1.05067,0.29444 -1.59193,0.44612 -4.10766,1.04787 -8.01054,1.16744 -12.23516,1.00876 -0.24016,-1.68039 -0.48031,-3.36077 -0.72775,-5.09206 1.17499,-0.17301 1.17499,-0.17301 2.3737,-0.34951 6.25055,-0.97851 11.83574,-2.27172 17.68185,-4.75107 1.77672,-0.71888 1.77672,-0.71888 3.2322,-0.71888 0,-0.48011 0,-0.96022 0,-1.45487 1.44093,-0.48011 2.88187,-0.96023 4.36645,-1.45488 0,-0.4801 0,-0.96022 0,-1.45487 0.69045,-0.24006 1.38089,-0.48011 2.09226,-0.72745 4.29438,-1.8309 8.75484,-5.05396 11.40508,-8.91393 0.52346,-0.62873 0.52346,-0.62873 1.0575,-1.27017 z"
     fill="#ca3f30"
     id="path16"
     style="stroke-width:0.727581" />
  <path
     d="m 302.86062,455.51586 c 2.31968,0.45465 2.31968,0.45465 4.00258,2.68242 0.65693,1.19452 1.30778,2.39236 1.95581,3.59172 1.15214,1.94907 2.32904,3.88305 3.50226,5.81949 0.58153,0.96952 1.16245,1.93939 1.74259,2.90975 0.43059,0.72016 0.86119,1.44032 1.30482,2.18231 0.20903,-0.40346 0.41805,-0.8069 0.6334,-1.22258 0.95358,-1.83682 1.91119,-3.67152 2.86886,-5.50621 0.49321,-0.95225 0.49321,-0.95225 0.99638,-1.92373 0.32131,-0.61421 0.64261,-1.2284 0.97365,-1.86122 0.29345,-0.56379 0.58689,-1.12759 0.88924,-1.70848 0.93726,-1.63638 1.84544,-3.09697 3.09912,-4.50882 2.27419,-0.22732 2.27419,-0.22732 4.36645,0 0.72774,0.72744 0.72774,0.72744 0.81037,3.4143 -1.2e-4,1.19671 -0.004,2.39343 -0.0116,3.59012 -6.2e-4,0.62867 -0.002,1.25734 -0.003,1.90507 -0.004,2.01616 -0.0132,4.03227 -0.0225,6.04843 -0.004,1.36347 -0.007,2.72693 -0.01,4.0904 -0.008,3.34973 -0.0206,6.69942 -0.0355,10.04914 -2.09226,0.45464 -2.09226,0.45464 -4.36645,0.72743 -1.77507,-1.77432 -1.66407,-2.33832 -1.75682,-4.77948 -0.0422,-0.97757 -0.0422,-0.97757 -0.0853,-1.97488 -0.0225,-0.68171 -0.0451,-1.36343 -0.0682,-2.06581 -0.0422,-1.03101 -0.0422,-1.03101 -0.0853,-2.08285 -0.0687,-1.70005 -0.13098,-3.4001 -0.18762,-5.10058 -0.41183,0.77924 -0.82365,1.55848 -1.24796,2.36133 -0.5391,1.01636 -1.07828,2.03268 -1.61753,3.04898 -0.27157,0.51434 -0.54315,1.02867 -0.82297,1.55859 -2.05104,3.86025 -2.05104,3.86025 -2.86122,4.67008 -1.64595,0.38645 -1.64595,0.38645 -3.63871,0 -1.4632,-1.64677 -2.45675,-3.52562 -3.50225,-5.45577 -0.29598,-0.52043 -0.59195,-1.04086 -0.89689,-1.57706 -0.72906,-1.28605 -1.44143,-2.58155 -2.15054,-3.87871 -0.0216,0.61661 -0.0216,0.61661 -0.0437,1.24566 -0.0692,1.85836 -0.14907,3.71613 -0.22919,5.57405 -0.0337,0.97053 -0.0337,0.97053 -0.0682,1.96067 -0.0282,0.61889 -0.0563,1.23778 -0.0853,1.87543 -0.0228,0.57141 -0.0458,1.14283 -0.0693,1.73156 -0.23227,1.43392 -0.23227,1.43392 -1.68775,2.88879 -1.81935,0.18186 -1.81935,0.18186 -3.63872,0 -1.87343,-1.87266 -1.63578,-3.13316 -1.65771,-5.68603 0.003,-0.57666 0.006,-1.15332 0.009,-1.74746 -10e-4,-0.5919 -0.002,-1.1838 -0.004,-1.79364 -6.3e-4,-1.25232 0.001,-2.50466 0.008,-3.75697 0.008,-1.9207 7e-5,-3.8409 -0.009,-5.76159 6.2e-4,-1.21524 0.002,-2.43047 0.006,-3.6457 -0.002,-0.57667 -0.006,-1.15334 -0.009,-1.74748 0.0457,-5.32796 0.0457,-5.32796 3.70449,-6.14067 z"
     fill="#5f5c56"
     id="path17"
     style="stroke-width:0.727581" />
  <path
     d="m 261.83986,417.1578 c 1.85915,0.25858 1.85915,0.25858 2.99056,1.35826 0.31707,0.5223 0.63416,1.04461 0.96085,1.58274 0.36023,0.58888 0.72046,1.17776 1.09161,1.7845 6.27677,11.04006 6.27677,11.04006 6.27677,12.99155 0.48032,0 0.96062,0 1.45548,0 0.17262,-0.59638 0.34523,-1.19277 0.52307,-1.80722 1.11372,-3.05465 2.59348,-5.74484 4.20726,-8.55875 0.44044,-0.78487 0.44044,-0.78487 0.88978,-1.58558 2.1888,-3.85587 2.1888,-3.85587 3.84054,-5.50692 1.81936,-0.18187 1.81936,-0.18187 3.63872,0 1.87345,1.87266 1.63578,3.13317 1.65771,5.68603 -0.002,0.57666 -0.006,1.15332 -0.009,1.74746 0.002,0.88785 0.002,0.88785 0.004,1.79364 6.3e-4,1.25232 -10e-4,2.50465 -0.008,3.75697 -0.008,1.9207 -8e-5,3.84091 0.009,5.76159 -6.2e-4,1.21524 -0.002,2.43048 -0.006,3.64571 0.002,0.57666 0.006,1.15333 0.009,1.74747 -0.0349,4.0639 -0.0349,4.0639 -1.65772,5.68602 -1.81935,0.18186 -1.81935,0.18186 -3.63871,0 -1.7443,-1.74357 -1.6613,-2.23342 -1.75681,-4.62036 -0.0422,-0.92833 -0.0422,-0.92833 -0.0853,-1.87542 -0.0225,-0.64701 -0.0451,-1.29404 -0.0682,-1.96066 -0.0422,-0.97898 -0.0422,-0.97898 -0.0853,-1.97773 -0.0687,-1.61384 -0.13098,-3.22769 -0.18762,-4.84199 -0.35086,0.66577 -0.7017,1.33154 -1.06318,2.0175 -0.46418,0.87337 -0.9285,1.74667 -1.39295,2.6199 -0.23077,0.43885 -0.46155,0.8777 -0.69931,1.32984 -1.0023,1.87852 -1.8793,3.43001 -3.39424,4.9443 -2.29229,-0.10682 -3.3087,-0.3664 -4.87245,-2.07717 -0.34335,-0.55982 -0.68669,-1.11962 -1.04045,-1.6964 -0.3471,-0.55044 -0.6942,-1.10087 -1.05182,-1.66799 -1.15271,-2.03059 -2.19752,-4.10045 -3.22366,-6.19742 -0.0182,0.45896 -0.0365,0.91791 -0.0552,1.39076 -0.0842,2.06745 -0.17358,4.13463 -0.26315,6.20185 -0.0286,0.72251 -0.0572,1.44503 -0.0867,2.18943 -0.0305,0.68687 -0.061,1.37374 -0.0924,2.08142 -0.04,0.95428 -0.04,0.95428 -0.0808,1.92782 -0.14948,1.48488 -0.14948,1.48488 -0.87722,2.21232 -1.70252,-0.20899 -3.40141,-0.45055 -5.09419,-0.72744 -0.0359,-3.91007 -0.0624,-7.82006 -0.0799,-11.73026 -0.007,-1.33081 -0.0173,-2.66161 -0.0299,-3.99237 -0.0176,-1.91039 -0.0259,-3.82061 -0.0323,-5.73106 -0.007,-0.59714 -0.015,-1.19428 -0.0228,-1.80951 -2.9e-4,-1.46082 0.0758,-2.92127 0.16489,-4.37938 1.45549,-1.45487 1.45549,-1.45487 3.23506,-1.71345 z"
     fill="#5c5953"
     id="path18"
     style="stroke-width:0.727581" />
  <path
     d="m 370.08579,455.69772 c 0.67966,-0.0178 1.35931,-0.0356 2.05956,-0.054 4.52138,-0.0191 7.234,0.54519 10.90333,3.23653 2.06431,3.09513 1.83221,5.82433 1.45549,9.45667 -0.90968,2.22777 -0.90968,2.22777 -2.18322,3.63718 -1.53507,0.45181 -1.53507,0.45181 -2.91097,0.72744 0.29831,0.43885 0.59664,0.87769 0.904,1.32984 0.39212,0.58138 0.78425,1.16276 1.18826,1.76176 0.58256,0.86082 0.58256,0.86082 1.17689,1.73902 2.62675,4.10853 2.62675,4.10853 2.32536,6.21732 -0.50032,1.31848 -0.50032,1.31848 -1.22806,2.04592 -1.6829,0.27278 -1.6829,0.27278 -3.63871,0 -1.65111,-1.59885 -2.7094,-3.21381 -3.69556,-5.28529 -1.53231,-3.42069 -1.53231,-3.42069 -4.38066,-5.64331 -1.77491,-0.46604 -1.77491,-0.46604 -4.29539,-0.7104 0.0253,0.7183 0.0507,1.43658 0.0768,2.17663 0.0197,0.93209 0.0394,1.86418 0.0597,2.8245 0.0253,0.92834 0.0507,1.85667 0.0768,2.81314 -0.10554,1.17307 -0.10554,1.17307 -0.2132,2.36986 -2.18323,1.45487 -2.18323,1.45487 -4.09356,1.22753 -1.72838,-0.5001 -1.72838,-0.5001 -2.45612,-1.22753 -0.0825,-1.97539 -0.11949,-3.93158 -0.12224,-5.90758 -0.002,-0.59294 -0.005,-1.18586 -0.007,-1.79677 -0.004,-1.25667 -0.005,-2.51333 -0.005,-3.77001 -10e-4,-1.9271 -0.0147,-3.85391 -0.0286,-5.78095 -0.002,-1.21856 -0.004,-2.4371 -0.004,-3.65565 -0.005,-0.57895 -0.0105,-1.15789 -0.0159,-1.75438 0.0283,-6.78868 3.33787,-5.96976 9.05292,-5.97748 z"
     fill="#5c5954"
     id="path19"
     style="stroke-width:0.727581" />
  <path
     d="m 400.65094,417.91649 c 0.75847,-0.0211 1.51693,-0.0422 2.29838,-0.064 4.51728,-0.0373 7.25348,0.13122 10.66453,3.201 1.80673,2.74823 1.6047,5.4105 1.18258,8.56443 -0.73953,2.63349 -2.17704,4.0686 -4.09354,5.9843 0.3152,0.48293 0.6304,0.96584 0.95516,1.4634 0.40526,0.64234 0.81052,1.28466 1.22806,1.94647 0.40527,0.63295 0.81052,1.2659 1.22807,1.91804 1.02089,2.0804 1.21117,3.30051 0.95516,5.58363 -0.72775,0.72745 -0.72775,0.72745 -2.68356,1.1821 -2.41063,-0.45465 -2.41063,-0.45465 -3.59321,-1.78734 -1.59106,-2.39751 -2.98601,-4.80148 -4.23001,-7.39656 -1.11843,-1.7494 -1.11843,-1.7494 -3.82064,-2.0459 -1.19327,-0.0675 -1.19327,-0.0675 -2.41065,-0.1364 0.0169,0.66577 0.0337,1.33155 0.0512,2.0175 0.0197,1.29685 0.0197,1.29685 0.0398,2.61991 0.0169,0.86081 0.0337,1.72164 0.0512,2.60854 -0.14213,2.21073 -0.14213,2.21073 -1.59761,3.6656 -1.81937,0.18186 -1.81937,0.18186 -3.63871,0 -1.87968,-1.87889 -1.62837,-3.14466 -1.63906,-5.70469 0.005,-0.57894 0.0105,-1.15788 0.0159,-1.75438 3.3e-4,-0.59362 6.2e-4,-1.18725 6.2e-4,-1.79886 0.002,-1.25539 0.008,-2.51077 0.017,-3.76612 0.0133,-1.9286 0.0149,-3.85694 0.0147,-5.78557 0.004,-1.21761 0.008,-2.43522 0.0128,-3.65282 6.2e-4,-0.58041 10e-4,-1.16084 0.002,-1.75885 0.057,-6.56168 3.24349,-5.05119 8.98913,-5.10349 z"
     fill="#5d5a55"
     id="path20"
     style="stroke-width:0.727581" />
  <path
     d="m 256.42159,232.64753 c 1.45548,0.77289 1.45548,0.77289 2.18322,2.1823 0.50891,2.59433 0.52903,4.27642 -0.93811,6.53841 -2.55286,3.00039 -5.4492,5.52976 -8.44293,8.07567 -4.36487,3.95097 -8.13884,8.51129 -11.5131,13.32403 -1.55195,1.91797 -2.833,2.57743 -5.25909,2.88701 -2.2287,-0.27279 -2.2287,-0.27279 -3.95709,-1.36394 -1.31819,-2.02714 -1.68849,-3.52238 -1.54929,-5.94168 2.05605,-9.51125 10.99647,-17.82931 18.71945,-23.18419 3.73177,-2.28667 6.38816,-3.11996 10.75694,-2.51761 z"
     fill="#f28274"
     id="path21"
     style="stroke-width:0.727581" />
  <path
     d="m 321.19062,285.02295 c 3.31528,0.40414 3.31528,0.40414 4.36646,1.45487 0.11529,1.50642 0.18285,3.01652 0.23025,4.52659 0.0305,0.91661 0.061,1.83322 0.0924,2.77762 0.029,0.97512 0.0579,1.95024 0.0867,2.92537 0.0314,0.97798 0.0631,1.95595 0.0952,2.9339 0.0775,2.40149 0.15174,4.80306 0.22316,7.20474 0.65696,-0.66302 0.65696,-0.66302 1.3272,-1.33944 0.5808,-0.58383 1.16161,-1.16767 1.76001,-1.76921 0.57307,-0.57704 1.14614,-1.15409 1.73656,-1.74863 1.98182,-1.94018 4.04716,-3.7488 6.16058,-5.54279 1.43479,-1.28135 2.71801,-2.64778 4.02533,-4.05772 1.7556,-1.79512 2.40641,-2.25852 4.91226,-3.00069 0.63039,0 1.2608,0 1.91031,0 0.72775,0.72745 0.72775,0.72745 1.08309,2.28746 -0.56501,3.30282 -2.86169,4.80213 -5.31308,6.9419 -0.73973,0.67111 -0.73973,0.67111 -1.4944,1.35578 -2.27226,2.05528 -4.57613,4.06775 -6.92012,6.04076 -4.22503,3.62235 -6.06223,5.55375 -7.00452,11.0167 -1.54645,1.81859 -1.54645,1.81859 -3.63871,2.90974 -0.89026,-0.0825 -1.78052,-0.16504 -2.69776,-0.25005 -2.72537,-0.0472 -3.90743,0.59387 -5.90152,2.43236 -0.92443,0.95499 -1.83274,1.92575 -2.7262,2.90974 -0.71317,0.74944 -0.71317,0.74944 -1.44073,1.51402 -3.11357,3.29306 -6.13887,6.66541 -9.06605,10.12497 -1.63742,1.81859 -1.63742,1.81859 -2.91097,2.90974 -0.72046,0 -1.44092,0 -2.18322,0 0.41352,-2.66904 1.41459,-3.81524 3.3658,-5.63763 2.46274,-2.3655 4.71709,-4.80681 6.9164,-7.41644 1.36167,-1.49466 1.36167,-1.49466 3.10997,-3.03478 3.31432,-2.94134 5.15057,-4.73505 5.43816,-9.28049 -0.0169,-0.65828 -0.0338,-1.31654 -0.0512,-1.99478 0.0469,-0.572 0.0938,-1.144 0.14215,-1.73333 0.35654,-0.29403 0.71307,-0.58807 1.08041,-0.891 1.67982,-1.96695 1.39614,-3.67982 1.42405,-6.22709 0.01,-0.47784 0.0192,-0.95569 0.0291,-1.44801 0.0297,-1.52445 0.0456,-3.04856 0.0591,-4.57323 0.0173,-1.52716 0.0378,-3.05402 0.0668,-4.58101 0.0258,-1.38362 0.0403,-2.76744 0.0542,-4.15124 0.19735,-2.13383 0.19735,-2.13383 1.65284,-3.5887 z"
     fill="#45403d"
     id="path22"
     style="stroke-width:0.727581" />
  <path
     d="m 207.8448,417.87102 c 1.13277,-0.0268 1.13277,-0.0268 2.28842,-0.054 4.49446,-0.0172 7.23688,0.18378 10.62901,3.23652 1.76737,2.89086 1.98724,6.14437 1.45549,9.45667 -1.51402,2.91866 -2.71242,4.71526 -5.82195,5.8195 -2.02911,0.10182 -3.97948,0.1374 -6.00386,0.0909 -0.54223,-0.007 -1.08444,-0.0132 -1.64311,-0.0199 -1.3324,-0.0171 -2.66467,-0.0432 -3.9969,-0.0711 0,3.36075 0,6.72151 0,10.18411 -2.45612,0.45465 -2.45612,0.45465 -5.09419,0.72743 -1.85257,-1.85179 -1.63541,-3.04924 -1.65771,-5.57511 0.002,-0.56076 0.006,-1.1215 0.009,-1.69925 -10e-4,-0.57575 -0.002,-1.15151 -0.004,-1.74471 -6.2e-4,-1.21808 0.001,-2.43617 0.008,-3.65424 0.008,-1.86802 8e-5,-3.73552 -0.009,-5.60353 6.3e-4,-1.18209 0.002,-2.36417 0.006,-3.54625 -0.002,-0.56075 -0.006,-1.1215 -0.009,-1.69925 0.0616,-6.97689 4.05584,-5.84082 9.84481,-5.8479 z"
     fill="#5e5b55"
     id="path23"
     style="stroke-width:0.727581" />
  <path
     d="m 341.93696,455.73181 c 1.16652,0.006 1.16652,0.006 2.35663,0.0114 0.81146,0.015 1.62291,0.03 2.45897,0.0454 1.22564,0.006 1.22564,0.006 2.47604,0.0114 6.0539,0.0586 6.0539,0.0586 6.89363,0.89793 0.091,2.18231 0.091,2.18231 0,4.36462 -0.72773,0.72743 -0.72773,0.72743 -2.01283,0.81001 -0.54498,-0.004 -1.08997,-0.008 -1.65145,-0.0116 -0.58867,-0.002 -1.17732,-0.004 -1.78383,-0.007 -0.61867,-0.006 -1.23735,-0.0122 -1.87478,-0.0184 -0.6215,-0.004 -1.24299,-0.007 -1.88333,-0.01 -1.5403,-0.009 -3.08059,-0.0217 -4.62086,-0.0355 0,1.92044 0,3.84087 0,5.8195 1.32694,-0.0127 1.32694,-0.0127 2.6807,-0.0256 1.1532,-0.007 2.30642,-0.0134 3.45961,-0.0199 0.58397,-0.006 1.16796,-0.0123 1.76961,-0.0184 1.48738,-0.007 2.97479,0.0259 4.46168,0.064 0.72775,0.72744 0.72775,0.72744 0.81871,2.90975 -0.091,2.1823 -0.091,2.1823 -0.81871,2.90974 -2.08328,0.0533 -4.14865,0.0672 -6.23129,0.0455 -0.58679,-0.004 -1.17356,-0.007 -1.77813,-0.01 -1.45408,-0.009 -2.90813,-0.0217 -4.36218,-0.0355 0,2.1605 0,4.32098 0,6.54693 0.92871,-0.0169 1.85744,-0.0337 2.81431,-0.0512 1.2148,-0.0136 2.42959,-0.0269 3.64439,-0.0398 0.61258,-0.0122 1.22517,-0.0244 1.8563,-0.037 0.58632,-0.004 1.17264,-0.009 1.77673,-0.0142 0.54117,-0.008 1.08234,-0.0153 1.6399,-0.0231 1.36772,0.16537 1.36772,0.16537 2.8232,1.62024 -0.27291,1.90952 -0.27291,1.90952 -0.72775,3.63718 -3.12318,0.0421 -6.24629,0.068 -9.36967,0.0909 -0.89026,0.0123 -1.78052,0.0244 -2.69776,0.037 -1.27348,0.007 -1.27348,0.007 -2.57268,0.0142 -0.78509,0.008 -1.57015,0.0153 -2.37903,0.0231 -1.90214,-0.16512 -1.90214,-0.16512 -3.35762,-1.62 -0.15424,-1.90416 -0.22123,-3.72946 -0.21889,-5.63479 -0.002,-0.55788 -0.007,-1.11577 -0.009,-1.69056 -0.004,-1.18077 -0.004,-2.36155 -0.001,-3.54233 0.002,-1.8075 -0.0147,-3.61412 -0.0333,-5.4215 -10e-4,-1.14656 -0.002,-2.29312 -10e-4,-3.43969 -0.01,-0.81163 -0.01,-0.81163 -0.0203,-1.63966 0.0189,-2.09653 0.051,-3.70091 1.1423,-5.5262 1.84275,-1.03961 3.22318,-1.0066 5.33388,-0.98655 z"
     fill="#625e58"
     id="path25"
     style="stroke-width:0.727581" />
  <path
     d="m 263.05788,455.86943 c 0.51927,10e-4 1.03854,0.002 1.57354,0.004 0.53031,-6.2e-4 1.0606,-10e-4 1.60695,-0.002 1.12322,-5e-4 2.24642,6.2e-4 3.36963,0.004 1.72501,0.004 3.44986,3e-5 5.17486,-0.004 1.08877,4.8e-4 2.17754,0.001 3.26631,0.002 0.51927,-10e-4 1.03855,-0.002 1.57354,-0.004 3.64168,0.0175 3.64168,0.0175 4.45307,0.82852 0.091,2.18231 0.091,2.18231 0,4.36461 -0.72774,0.72744 -0.72774,0.72744 -2.70913,0.79848 -1.20312,-0.0127 -1.20312,-0.0127 -2.43055,-0.0256 -0.80395,-0.007 -1.6079,-0.0132 -2.43622,-0.0198 -0.62197,-0.008 -1.24393,-0.0169 -1.88475,-0.0256 0.0114,0.6755 0.0228,1.351 0.0347,2.04697 0.0372,2.50263 0.0646,5.00495 0.0853,7.50774 0.011,1.08386 0.0259,2.16769 0.0447,3.25144 0.0264,1.55653 0.0389,3.11265 0.0486,4.66937 0.0114,0.93712 0.0228,1.87425 0.0346,2.83978 -0.0818,0.73762 -0.16358,1.47525 -0.24785,2.23523 -2.18322,1.45487 -2.18322,1.45487 -4.09355,1.22755 -1.72838,-0.50011 -1.72838,-0.50011 -2.45613,-1.22755 -0.064,-1.66693 -0.0778,-3.33583 -0.071,-5.00398 6.3e-4,-0.49949 0.002,-0.999 0.002,-1.51363 0.004,-1.60108 0.0132,-3.20207 0.0225,-4.80312 0.004,-1.0831 0.007,-2.1662 0.01,-3.24932 0.008,-2.66018 0.0206,-5.32033 0.0355,-7.98048 -0.62196,0.008 -1.24392,0.0169 -1.88473,0.0256 -0.80396,0.007 -1.60792,0.0131 -2.43623,0.0198 -0.80208,0.008 -1.60415,0.0169 -2.43055,0.0256 -1.98125,-0.0711 -1.98125,-0.0711 -2.709,-0.79848 -0.091,-2.1823 -0.091,-2.1823 0,-4.36461 1.24076,-1.24024 2.79843,-0.82058 4.45308,-0.82852 z"
     fill="#5e5a55"
     id="path26"
     style="stroke-width:0.727581" />
  <path
     d="m 239.1832,422.91761 c 2.74575,0.0531 3.3048,0.2362 5.59452,2.00045 2.52177,3.38722 2.58015,6.60531 2.18322,10.68423 -1.12997,2.95821 -1.7195,4.0556 -4.36646,5.81949 -2.247,0.43743 -4.30521,0.46051 -6.54967,0 -2.30485,-1.71439 -3.46117,-3.8322 -4.36644,-6.54693 -0.36736,-4.47985 -0.0157,-6.57033 2.91096,-10.1841 1.72505,-1.72432 2.2291,-1.70559 4.59387,-1.77314 z"
     fill="#eae4d7"
     id="path27"
     style="stroke-width:0.727581" />
  <path
     d="m 375.04353,423.23587 c 2.50214,1.52241 4.22942,2.99049 5.09419,5.81949 0.37185,4.6089 -0.13435,7.66764 -3.1526,11.37472 -1.95002,1.59313 -3.70918,1.37672 -6.14315,1.30143 -2.5937,-0.49578 -3.72613,-1.88786 -5.25909,-3.94691 -1.27615,-3.82685 -1.39918,-7.9226 0.22742,-11.63899 2.62568,-3.11061 5.35874,-3.53 9.23323,-2.90974 z"
     fill="#ece6da"
     id="path28"
     style="stroke-width:0.727581" />
  <path
     d="m 311.00224,423.23587 c 2.04498,1.30476 3.28168,2.19599 4.36644,4.36462 0.86876,8.98162 0.86876,8.98162 -1.41,12.23002 -2.5986,1.85537 -4.07413,2.18425 -7.20919,1.98057 -2.49763,-0.61963 -3.68582,-2.02959 -5.2079,-4.02648 -1.42645,-2.8517 -0.98453,-6.34042 -0.72774,-9.45668 2.00898,-4.68565 5.25818,-5.899 10.18839,-5.09205 z"
     fill="#ece6d9"
     id="path29"
     style="stroke-width:0.727581" />
  <path
     d="m 436.17386,423.23587 c 2.04497,1.30476 3.28169,2.19599 4.36644,4.36462 0.12716,1.52724 0.19444,3.05977 0.22742,4.59194 0.0272,0.82238 0.0544,1.64475 0.0824,2.49204 -0.37095,2.84046 -1.23562,3.98868 -3.22084,6.00988 -2.3411,1.17005 -4.74586,1.17341 -7.27741,0.72743 -1.95839,-1.58272 -3.24233,-2.84475 -4.36646,-5.09206 -0.74098,-7.43097 -0.74098,-7.43097 1.36453,-10.63875 2.5461,-2.84447 5.14339,-2.98369 8.82387,-2.4551 z"
     fill="#ede7db"
     id="path30"
     style="stroke-width:0.727581" />
  <path
     d="m 334.28998,423.23587 c 8.31705,0 8.31705,0 11.64387,2.90974 2.06592,3.09758 1.82783,5.82196 1.45548,9.45668 -0.93248,2.30569 -1.83391,3.33035 -3.68418,4.95566 -2.13775,0.86383 -2.13775,0.86383 -9.41517,0.86383 0,-6.00135 0,-12.0027 0,-18.18591 z"
     fill="#eae4d7"
     id="path31"
     style="stroke-width:0.727581" />
  <path
     d="m 292.80868,455.97051 c 1.79507,2.69147 1.67822,4.77257 1.67439,7.88814 0.002,0.55685 0.007,1.1137 0.009,1.68743 0.004,1.17642 0.004,2.35287 10e-4,3.5293 -0.002,1.80103 0.0147,3.6012 0.0332,5.40214 10e-4,1.14324 0.002,2.28649 10e-4,3.42974 0.007,0.5388 0.0134,1.0776 0.0203,1.63274 -0.0195,2.1616 -0.036,3.6982 -1.25069,5.52939 -1.21722,0.72601 -1.21722,0.72601 -3.49141,0.58962 -0.69045,-0.19505 -1.38089,-0.39009 -2.09226,-0.59104 -1.12411,-2.24729 -0.86151,-4.62249 -0.87557,-7.08967 -0.004,-0.55788 -0.008,-1.11577 -0.0126,-1.69055 -0.007,-1.18076 -0.0116,-2.36155 -0.0144,-3.54234 -0.007,-1.80741 -0.0296,-3.61423 -0.0526,-5.4215 -0.005,-1.14656 -0.009,-2.29312 -0.0114,-3.43969 -0.009,-0.54108 -0.0179,-1.08217 -0.0273,-1.63966 0.0162,-3.73021 0.0162,-3.73021 1.256,-5.52406 1.71,-1.07479 2.85755,-1.05362 4.83195,-0.74999 z"
     fill="#64615b"
     id="path32"
     style="stroke-width:0.727581" />
  <path
     d="m 225.17417,272.15641 c 2.13774,0.50012 2.13774,0.50012 3.9116,1.90952 1.59771,3.13017 1.40648,5.44657 0.40936,8.77471 -1.01862,2.09087 -1.76556,2.81789 -3.63871,4.36462 -2.68354,0.0455 -2.68354,0.0455 -5.09419,-0.72744 -2.06596,-3.09765 -2.00239,-5.82152 -1.45549,-9.45667 1.27386,-2.78162 2.8189,-4.18066 5.86743,-4.86474 z"
     fill="#f37e71"
     id="path33"
     style="stroke-width:0.727581" />
  <path
     d="m 381.91159,213.05221 c 0.56287,0.33757 0.56287,0.33757 1.13709,0.68197 -4.86562,3.95873 -11.17726,7.30365 -17.55676,7.68354 -2.09227,-0.40917 -2.09227,-0.40917 -3.54774,-1.72766 -0.72775,-1.59126 -0.72775,-1.59126 0,-3.77357 1.27354,-0.42908 1.27354,-0.42908 2.91095,-0.68198 2.58389,-0.47555 4.65749,-1.18711 7.00453,-2.36416 3.64784,-1.71179 6.35674,-1.42819 10.05193,0.18186 z"
     fill="#cc3f30"
     id="path34"
     style="stroke-width:0.727581" />
  <path
     d="m 273.75378,212.48105 c 0.6595,0.39853 1.31898,0.79706 1.99845,1.20766 2.56564,1.53873 4.62114,2.53044 7.59581,2.95521 0,0.96023 0,1.92043 0,2.90974 -1.56066,1.33837 -1.56066,1.33837 -3.63871,2.18232 -5.62511,-0.75553 -11.54505,-3.8182 -16.01032,-7.27437 0,-0.48011 0,-0.96022 0,-1.45487 3.53789,-1.66419 6.41004,-2.17802 10.05477,-0.52569 z"
     fill="#cb4031"
     id="path35"
     style="stroke-width:0.727581" />
  <path
     d="m 370.67708,213.73418 c -2.8784,2.00531 -5.25738,2.56915 -8.7329,2.90974 0.22514,0.4351 0.45029,0.8702 0.68225,1.31849 0.77322,1.59125 0.77322,1.59125 1.50097,3.77357 0.6154,0.61513 1.2308,1.23027 1.86483,1.86405 0.58539,0.58513 1.17077,1.17027 1.77388,1.77313 0,0.4801 0,0.96022 0,1.45487 0.48031,0 0.96062,0 1.45549,0 3.05513,6.24652 3.97337,12.72739 3.6387,19.64078 -0.72774,0.72745 -0.72774,0.72745 -2.61247,0.82405 -4.99776,-0.0116 -9.8934,-0.19732 -14.85333,-0.82405 0,-0.4801 0,-0.96021 0,-1.45487 5.2834,0.24006 10.56681,0.48011 16.01032,0.72744 -0.24016,-1.24528 -0.48031,-2.49056 -0.72774,-3.77358 -0.51544,-2.67274 -0.80743,-5.14231 -0.72775,-7.8654 -0.48031,0 -0.96062,0 -1.45548,0 -0.14259,-0.62359 -0.28518,-1.24716 -0.43209,-1.88964 -1.54942,-5.92137 -3.23866,-9.18539 -8.30081,-12.6591 -0.72775,-0.72743 -0.72775,-0.72743 -0.77323,-2.59148 0.015,-0.58514 0.03,-1.17027 0.0454,-1.77313 1.66637,-0.38489 3.33444,-0.76239 5.00322,-1.13662 0.92873,-0.21098 1.85746,-0.42197 2.81432,-0.63935 2.37085,-0.40634 2.37085,-0.40634 3.82633,0.3211 z"
     fill="#925d37"
     id="path36"
     style="stroke-width:0.727581" />
  <path
     d="m 367.76611,461.06256 c 1.14074,-0.0451 2.28146,-0.09 3.45677,-0.13639 0.9625,-0.038 0.9625,-0.038 1.94444,-0.0767 2.24101,0.25456 3.19483,0.81843 4.78717,2.39544 0.27291,2.22777 0.27291,2.22777 0,4.36461 -1.45547,1.45487 -1.45547,1.45487 -3.50793,1.59695 -0.79365,-0.0169 -1.58728,-0.0337 -2.40497,-0.0512 -0.79738,-0.0132 -1.59477,-0.0263 -2.41632,-0.0398 -0.61353,-0.0169 -1.22705,-0.0337 -1.85916,-0.0512 0,-2.64059 0,-5.28119 0,-8.0018 z"
     fill="#ebe5da"
     id="path37"
     style="stroke-width:0.727581" />
  <path
     d="m 205.47965,423.23587 c 7.61469,-0.26864 7.61469,-0.26864 9.36399,0.93487 0.82439,1.24744 0.82439,1.24744 0.68794,3.8844 -0.19511,0.81018 -0.39024,1.62036 -0.59128,2.45509 -2.80287,1.40085 -6.40445,0.76296 -9.46065,0.72744 0,-2.64059 0,-5.28118 0,-8.0018 z"
     fill="#ece6d9"
     id="path38"
     style="stroke-width:0.727581" />
  <path
     d="m 276.07062,230.46522 c 0.24015,0 0.48031,0 0.72774,0 0.18366,2.57005 0.14067,4.08952 -1.04613,6.41053 -1.48121,3.02043 -1.6114,5.52158 -1.86484,8.86563 2.88186,0.24005 5.76372,0.48011 8.73291,0.72743 0,-0.4801 0,-0.96021 0,-1.45487 0.65762,-0.0881 1.31522,-0.17628 1.99276,-0.26711 0.85836,-0.1219 1.71674,-0.24379 2.6011,-0.36939 0.85275,-0.11815 1.70549,-0.2363 2.58406,-0.35804 2.38848,-0.33158 2.38848,-0.33158 4.46595,-1.9152 1.67455,-0.42965 3.35162,-0.7332 5.05156,-1.0457 1.64602,-0.3166 1.64602,-0.3166 2.9536,-1.86405 1.54645,0.27279 1.54645,0.27279 2.91097,0.72744 -0.96062,0.24006 -1.92124,0.48011 -2.91097,0.72744 0,0.48011 0,0.96021 0,1.45487 -9.58665,4.63751 -18.42875,6.3901 -29.10968,5.09206 -0.72775,-0.72745 -0.72775,-0.72745 -0.90968,-3.22801 0.0517,-4.77472 1.60651,-9.30755 3.82065,-13.50303 z"
     fill="#7e6839"
     id="path39"
     style="stroke-width:0.727581" />
  <path
     d="m 316.09643,318.48503 c 0.48031,0.96021 0.96061,1.92043 1.45549,2.90975 -0.62384,0.61513 -1.24769,1.23027 -1.89042,1.86405 -4.3873,4.34442 -8.65563,8.71212 -12.66443,13.41211 -1.63742,1.81859 -1.63742,1.81859 -2.91097,2.90974 -0.72046,0 -1.44092,0 -2.18322,0 0.41352,-2.66904 1.41459,-3.81524 3.3658,-5.63763 1.9969,-1.91805 3.88904,-3.84898 5.68549,-5.95589 2.8723,-3.34295 5.99466,-6.42006 9.14226,-9.50213 z"
     fill="#3e3b39"
     id="path40"
     style="stroke-width:0.727581" />
  <path
     d="m 398.33127,423.23587 c 1.28816,-0.0591 2.5771,-0.10131 3.86613,-0.13639 0.71765,-0.0253 1.43531,-0.0507 2.1747,-0.0767 1.96433,0.21311 1.96433,0.21311 3.32602,1.17072 0.82154,1.2247 0.82154,1.2247 0.63961,3.49794 -0.54581,2.09138 -0.54581,2.09138 -1.27356,2.81881 -1.46977,0.0527 -2.94129,0.061 -4.41193,0.0454 -0.80395,-0.007 -1.60791,-0.0132 -2.43623,-0.0199 -0.93295,-0.0127 -0.93295,-0.0127 -1.88474,-0.0256 0,-2.40054 0,-4.80108 0,-7.27436 z"
     fill="#ece5da"
     id="path41"
     style="stroke-width:0.727581" />
  <path
     d="m 270.24869,210.09699 c 1.68108,0.24006 3.36217,0.48011 5.09419,0.72745 0.24015,0.72016 0.4803,1.44032 0.72774,2.1823 0.53566,0.0272 1.07132,0.0544 1.6232,0.0824 7.05343,0.475 7.05343,0.475 10.02068,2.82734 -0.18195,1.36394 -0.18195,1.36394 -0.72775,2.90974 -0.97032,0.48496 -1.94064,0.96991 -2.91097,1.45487 -1.31523,1.38939 -2.45699,2.8553 -3.63871,4.36462 -0.24015,-0.48011 -0.48031,-0.96021 -0.72774,-1.45487 0.95515,-1.90952 0.95515,-1.90952 2.18322,-3.63719 0.48032,0 0.96063,0 1.45549,0 0,-0.96021 0,-1.92042 0,-2.90974 -0.50657,0.0507 -1.01314,0.10128 -1.53508,0.15345 -2.73088,-0.1992 -4.31729,-1.20025 -6.65202,-2.60854 -1.15387,-0.6836 -1.15387,-0.6836 -2.33104,-1.381 -1.85347,-1.25596 -1.85347,-1.25596 -2.58121,-2.71084 z"
     fill="#6e6f39"
     id="path42"
     style="stroke-width:0.727581" />
  <path
     d="m 367.76611,228.2829 c 3.52782,3.52634 5.33539,10.59031 5.3671,15.5035 -0.27291,2.68241 -0.27291,2.68241 -1.00065,3.40986 -5.60555,0.28734 -11.17571,-0.0246 -16.73806,-0.72745 0,-0.4801 0,-0.96021 0,-1.45487 5.2834,0.24006 10.56681,0.48011 16.01032,0.72744 -0.24016,-1.24528 -0.48031,-2.49056 -0.72774,-3.77358 -0.51544,-2.67274 -0.80743,-5.14231 -0.72775,-7.8654 -0.48031,0 -0.96062,0 -1.45548,0 -0.24015,-1.92044 -0.4803,-3.84087 -0.72774,-5.8195 z"
     fill="#7a6939"
     id="path43"
     style="stroke-width:0.727581" />
  <path
     d="m 321.19062,350.49223 c 3.42467,0.51348 3.42467,0.51348 4.36646,1.45487 0.12224,1.45203 0.12224,1.45203 0.13645,3.228 0.0103,0.5842 0.0207,1.16838 0.0312,1.77028 -0.16776,1.54865 -0.16776,1.54865 -1.62323,3.00352 -1.91033,-0.27279 -1.91033,-0.27279 -3.63873,-0.72744 -0.0196,-1.31841 -0.0337,-2.63691 -0.0454,-3.95543 -0.008,-0.73423 -0.0169,-1.46845 -0.0256,-2.22493 0.071,-1.82144 0.071,-1.82144 0.79877,-2.54887 z"
     fill="#44403d"
     id="path44"
     style="stroke-width:0.727581" />
  <path
     d="m 362.12611,311.11405 c 0.66042,0.002 1.32086,0.004 2.00129,0.006 0.99064,-0.002 0.99064,-0.002 2.00129,-0.006 1.63742,0.0966 1.63742,0.0966 2.36516,0.82405 0.091,1.8186 0.091,1.8186 0,3.63718 -1.21213,1.21163 -2.66326,0.85195 -4.32097,0.86383 -0.65198,0.0103 -1.30396,0.0207 -1.9757,0.0312 -1.70849,-0.16768 -1.70849,-0.16768 -3.16398,-1.62255 0.54317,-3.58335 0.54317,-3.58335 3.09291,-3.7338 z"
     fill="#46423f"
     id="path45"
     style="stroke-width:0.727581" />
  <path
     d="m 281.11933,311.07427 c 0.65199,-0.0103 1.30397,-0.0207 1.97571,-0.0312 1.70849,0.16768 1.70849,0.16768 3.16396,1.62255 -0.38985,2.57201 -0.38985,2.57201 -1.45547,3.63718 -1.21118,0.0714 -2.42544,0.0944 -3.63871,0.0909 -0.99065,0.002 -0.99065,0.002 -2.00129,0.006 -1.63743,-0.0966 -1.63743,-0.0966 -2.36517,-0.82406 -0.091,-1.81858 -0.091,-1.81858 0,-3.63717 1.21214,-1.21163 2.66327,-0.85195 4.32097,-0.86383 z"
     fill="#413d3a"
     id="path46"
     style="stroke-width:0.727581" />
  <path
     d="m 241.86675,378.86225 c 2.92165,1.05346 5.56648,2.46594 8.28428,3.94833 8.57922,4.66837 17.11625,8.33155 26.64733,10.6004 -1.07171,0.84962 -1.07171,0.84962 -2.91097,1.45487 -2.16497,-0.53935 -4.07442,-1.15058 -6.14031,-1.95499 -0.59905,-0.22722 -1.19808,-0.45443 -1.81527,-0.68853 -4.87446,-1.91611 -9.54912,-4.17316 -14.19506,-6.58583 -0.97507,-0.50522 -0.97507,-0.50522 -1.96984,-1.02065 -3.03089,-1.62097 -5.65315,-3.0821 -7.90016,-5.7536 z"
     fill="#8f352e"
     id="path47"
     style="stroke-width:0.727581" />
  <path
     d="m 202.56868,319.9399 c 0.48031,0 0.96062,0 1.45549,0 0.73245,2.49921 1.45843,5.00026 2.18321,7.50168 0.20826,0.71032 0.41652,1.42064 0.6311,2.15248 0.197,0.68219 0.394,1.36437 0.59698,2.06722 0.18292,0.62857 0.36586,1.25712 0.55432,1.90473 0.40084,1.65005 0.40084,1.65005 0.40084,3.83236 0.4803,0 0.96061,0 1.45548,0 0.2289,0.57107 0.4578,1.14214 0.69363,1.73051 2.07355,5.08804 4.26041,9.69832 7.31154,14.2731 -0.24016,0.72015 -0.48032,1.44032 -0.72775,2.1823 -7.12004,-11.18394 -12.08921,-22.57029 -14.55484,-35.64438 z"
     fill="#92352e"
     id="path48"
     style="stroke-width:0.727581" />
  <path
     d="m 324.82933,268.2919 c 0,2.6406 0,5.2812 0,8.00181 -1.20077,0.24005 -2.40155,0.48011 -3.63871,0.72744 -0.72775,-0.72744 -0.72775,-0.72744 -0.7988,-2.54888 0.008,-0.73422 0.0169,-1.46845 0.0256,-2.22492 0.007,-0.7361 0.0132,-1.47221 0.02,-2.23062 0.008,-0.5692 0.0169,-1.13838 0.0256,-1.72483 1.45548,-0.72743 1.45548,-0.72743 4.36646,0 z"
     fill="#3d3935"
     id="path49"
     style="stroke-width:0.727581" />
  <path
     d="m 230.95062,226.1006 c -0.97158,2.17383 -2.02375,3.63471 -3.74957,5.26823 -0.44513,0.43041 -0.89027,0.86082 -1.34889,1.30427 -0.93283,0.88812 -1.86713,1.77471 -2.80294,2.65968 -2.65446,2.57244 -4.42322,4.7907 -5.9257,8.22628 -0.94054,1.23563 -1.90298,2.45591 -2.91097,3.6372 -0.48032,-0.24006 -0.96061,-0.48011 -1.45548,-0.72745 3.67341,-6.36625 8.00221,-11.48573 13.09935,-16.73103 0.65105,-0.68453 1.3021,-1.36906 1.97286,-2.07433 1.66585,-1.56285 1.66585,-1.56285 3.12134,-1.56285 z"
     fill="#8c2f27"
     id="path50"
     style="stroke-width:0.727581" />
  <path
     d="m 354.66675,273.38397 c 7.19984,3.43449 10.63992,9.38848 14.55485,16.00359 0.31802,0.52325 0.63603,1.0465 0.96369,1.5856 0.62024,1.67004 0.35389,2.583 -0.23596,4.2339 -0.2561,-0.55419 -0.51221,-1.10837 -0.77605,-1.67935 -3.468,-7.24985 -7.61687,-12.76247 -13.41206,-18.30242 -1.09447,-1.11389 -1.09447,-1.11389 -1.09447,-1.84132 z"
     fill="#8f322f"
     id="path51"
     style="stroke-width:0.727581" />
  <path
     d="m 377.22676,206.45981 c 0.96061,0.24005 1.92124,0.48011 2.91096,0.72744 -6.50094,5.44542 -12.63851,7.68004 -21.10452,8.0018 -0.24015,0.72016 -0.4803,1.44033 -0.72774,2.18231 0,-0.96021 0,-1.92044 0,-2.90975 0.5291,-0.11533 1.05819,-0.23068 1.60332,-0.34951 9.8063,-1.9296 9.8063,-1.9296 17.31798,-7.65229 z"
     fill="#6d713b"
     id="path52"
     style="stroke-width:0.727581" />
  <path
     d="m 203.29642,271.92909 c 0.24016,0 0.48031,0 0.72775,0 0.13059,3.65515 -0.1674,6.4592 -1.10548,10.02357 -0.61041,2.81722 -0.69249,5.65284 -0.80485,8.52606 -0.0282,0.59826 -0.0562,1.19653 -0.0853,1.81291 -0.0678,1.45653 -0.12845,2.91339 -0.18763,4.3703 -0.24016,0 -0.48031,0 -0.72774,0 -0.93275,-8.3463 -0.52905,-15.82509 1.45548,-24.0054 0.24015,-0.24005 0.48031,-0.48012 0.72774,-0.72744 z"
     fill="#993931"
     id="path53"
     style="stroke-width:0.727581" />
  <path
     d="m 322.50966,225.82781 c 0.52534,0.09 1.05067,0.18004 1.59194,0.27279 -0.40527,0.15003 -0.81053,0.30006 -1.22808,0.45465 -1.87355,1.11353 -2.89888,2.46689 -4.23568,4.16002 -2.56621,2.84716 -5.91921,4.91061 -9.09109,7.02431 -0.96062,0 -1.92123,0 -2.91097,0 0,0.48011 0,0.96022 0,1.45487 -0.48031,0 -0.96062,0 -1.45548,0 0.36023,-1.08024 0.36023,-1.08024 0.72774,-2.18232 0.72047,0 1.44093,0 2.18323,0 0,-0.48009 0,-0.9602 0,-1.45486 1.35125,-0.83582 2.73825,-1.61424 4.13903,-2.36417 3.79525,-2.11499 3.79525,-2.11499 6.73161,-5.22845 1.50096,-1.86405 1.50096,-1.86405 3.54775,-2.13684 z"
     fill="#786739"
     id="path54"
     style="stroke-width:0.727581" />
  <path
     d="m 276.79836,214.46161 c 3.50727,-0.17101 6.15887,0.39875 9.46064,1.45488 -0.30255,3.52837 -1.75865,4.97799 -4.36645,7.27436 -0.72046,0.48011 -1.44092,0.96021 -2.18322,1.45487 0.59129,-2.13684 0.59129,-2.13684 1.45549,-4.36462 0.72045,-0.24005 1.44092,-0.4801 2.18322,-0.72744 0,-0.96021 0,-1.92042 0,-2.90974 -0.54036,0.0451 -1.08069,0.09 -1.63742,0.1364 -2.33156,-0.15891 -3.19501,-0.79291 -4.91226,-2.31871 z"
     fill="#8a5d36"
     id="path55"
     style="stroke-width:0.727581" />
  <path
     d="m 382.36643,207.5055 c 5.33535,1.5033 10.90682,3.4296 15.2371,6.95611 -1.44093,0 -2.88186,0 -4.36645,0 0,-0.48011 0,-0.96022 0,-1.45487 -1.92124,-0.48011 -3.84248,-0.96022 -5.82194,-1.45487 0,-0.48011 0,-0.96022 0,-1.45488 -1.14801,-0.3044 -2.30144,-0.58846 -3.45677,-0.86383 -0.9625,-0.24051 -0.9625,-0.24051 -1.94444,-0.48591 -1.94241,-0.28918 -1.94241,-0.28918 -3.57048,0.94909 -0.60227,0.55841 -0.60227,0.55841 -1.21669,1.1281 -0.48032,-0.24006 -0.96063,-0.48011 -1.45549,-0.72745 2.14246,-2.34879 3.5033,-3.21522 6.59516,-2.59149 z"
     fill="#953527"
     id="path56"
     style="stroke-width:0.727581" />
  <path
     d="m 336.4732,364.31352 c 0,0.24006 0,0.48011 0,0.72744 -3.58585,1.43374 -6.38972,1.5858 -10.18838,1.45487 0,-0.24005 0,-0.48011 0,-0.72743 -3.12201,-0.24006 -6.24402,-0.48012 -9.46065,-0.72744 0,-0.24006 0,-0.48011 0,-0.72744 2.31924,-0.14471 4.639,-0.27791 6.95903,-0.40919 0.65152,-0.0408 1.30304,-0.0816 1.97428,-0.1236 3.70334,-0.2034 7.06629,-0.14275 10.71572,0.53279 z"
     fill="#b65550"
     id="path57"
     style="stroke-width:0.727581" />
  <path
     d="m 325.55708,229.01035 c 0.49109,0.37133 0.49109,0.37133 0.99211,0.75016 4.24197,3.195 8.5334,6.31976 12.83498,9.43394 -1.29345,0.46601 -1.29345,0.46601 -2.91097,0.72744 -1.32187,-0.64788 -1.32187,-0.64788 -2.59258,-1.63673 -0.4212,-0.31883 -0.84242,-0.63765 -1.27639,-0.96613 -1.2061,-1.0182 -2.30602,-2.08801 -3.40845,-3.21663 -0.64541,-0.61514 -1.29083,-1.23028 -1.9558,-1.86407 -1.6829,-1.77311 -1.6829,-1.77311 -1.6829,-3.22798 z"
     fill="#a84f34"
     id="path58"
     style="stroke-width:0.727581" />
  <path
     d="m 209.11836,253.01574 c 0.77481,2.34661 0.67689,3.70287 -0.10518,6.03262 -0.19278,0.57809 -0.38556,1.15619 -0.58418,1.7518 -0.20779,0.59686 -0.41558,1.19372 -0.62968,1.80865 -0.29902,0.90794 -0.29902,0.90794 -0.60408,1.83422 -1.52324,4.48018 -1.52324,4.48018 -3.17107,5.30375 0.41925,-4.03694 1.47076,-7.46371 2.95645,-11.2298 0.20497,-0.53215 0.40995,-1.0643 0.62114,-1.61258 0.50077,-1.29807 1.00802,-2.59363 1.5166,-3.88866 z"
     fill="#92342c"
     id="path59"
     style="stroke-width:0.727581" />
  <path
     d="m 259.33255,210.09699 c -1.71568,2.35809 -3.71168,2.60839 -6.45872,3.19391 -1.63706,0.46925 -2.83843,1.13058 -4.27547,2.03455 -2.36516,1.31847 -2.36516,1.31847 -3.96846,1.03716 -0.43153,-0.14722 -0.86305,-0.29444 -1.30767,-0.44612 2.25344,-1.11798 4.51437,-2.21989 6.7771,-3.31894 0.6412,-0.31835 1.28239,-0.6367 1.94301,-0.9647 0.61681,-0.29772 1.23361,-0.59545 1.8691,-0.90219 0.56786,-0.27808 1.1357,-0.55618 1.72076,-0.8427 1.51713,-0.5184 1.51713,-0.5184 3.70035,0.20903 z"
     fill="#98382f"
     id="path60"
     style="stroke-width:0.727581" />
  <path
     d="m 345.93385,348.30992 c 0.45484,1.36394 0.45484,1.36394 0.72773,2.90974 -0.48029,0.48012 -0.9606,0.96022 -1.45548,1.45489 -1.91032,-0.2728 -1.91032,-0.2728 -3.6387,-0.72745 0,-1.20027 0,-2.40054 0,-3.63718 1.81275,-0.90599 2.48219,-0.56504 4.36645,0 z"
     fill="#464340"
     id="path61"
     style="stroke-width:0.727581" />
  <path
     d="m 358.30546,290.11501 c 1.50097,0.31825 1.50097,0.31825 2.91097,0.72744 0.45484,1.36393 0.45484,1.36393 0.72775,2.90974 -0.48031,0.48011 -0.96063,0.96021 -1.45549,1.45487 -1.91032,-0.27279 -1.91032,-0.27279 -3.63871,-0.72744 0.63677,-3.54625 0.63677,-3.54625 1.45548,-4.36461 z"
     fill="#3f3c3a"
     id="path62"
     style="stroke-width:0.727581" />
  <path
     d="m 342.29515,274.83883 c 1.21927,0.20809 2.43345,0.44942 3.6387,0.72744 0.45484,1.36394 0.45484,1.36394 0.72773,2.90976 -0.48029,0.4801 -0.9606,0.96021 -1.45548,1.45486 -1.54644,-0.27278 -1.54644,-0.27278 -2.91095,-0.72743 -0.27815,-1.20475 -0.51958,-2.41842 -0.72775,-3.63719 0.24016,-0.24006 0.4803,-0.48011 0.72775,-0.72744 z"
     fill="#444240"
     id="path63"
     style="stroke-width:0.727581" />
  <path
     d="m 300.0861,347.58248 c 1.21928,0.20808 2.43347,0.44942 3.63871,0.72744 0,1.20027 0,2.40054 0,3.63718 -1.20524,0.27802 -2.41943,0.51936 -3.63871,0.72745 -0.72773,-0.72745 -0.72773,-0.72745 -0.8187,-2.54604 0.091,-1.81859 0.091,-1.81859 0.8187,-2.54603 z"
     fill="#3b3835"
     id="path64"
     style="stroke-width:0.727581" />
  <path
     d="m 284.80353,332.30631 c 1.21927,0.20809 2.43346,0.44942 3.6387,0.72744 0,1.20028 0,2.40055 0,3.63719 -1.20524,0.27801 -2.41943,0.51935 -3.6387,0.72743 -0.72775,-0.72743 -0.72775,-0.72743 -0.81871,-2.54602 0.091,-1.8186 0.091,-1.8186 0.81871,-2.54604 z"
     fill="#44413f"
     id="path65"
     style="stroke-width:0.727581" />
  <path
     d="m 316.09643,318.48503 c 0.48031,0.96021 0.96061,1.92043 1.45549,2.90975 -2.1614,2.16048 -4.32279,4.32097 -6.54968,6.54692 0,-2.18231 0,-2.18231 1.45548,-3.63719 0,-0.72015 0,-1.44032 0,-2.1823 1.81935,-1.95498 1.81935,-1.95498 3.63871,-3.63718 z"
     fill="#3e3b39"
     id="path66"
     style="stroke-width:0.727581" />
  <path
     d="m 358.30546,332.30631 c 1.54646,0.2728 1.54646,0.2728 2.91097,0.72744 0.45484,1.36395 0.45484,1.36395 0.72775,2.90975 -0.48031,0.4801 -0.96063,0.96021 -1.45549,1.45487 -1.54646,-0.27279 -1.54646,-0.27279 -2.91096,-0.72743 -0.45485,-1.36394 -0.45485,-1.36394 -0.72775,-2.90975 0.4803,-0.48011 0.96062,-0.96021 1.45548,-1.45488 z"
     fill="#3f3a38"
     id="path67"
     style="stroke-width:0.727581" />
  <path
     d="m 284.80353,290.11501 c 1.50096,0.31825 1.50096,0.31825 2.91097,0.72744 0.24014,1.20026 0.4803,2.40053 0.72773,3.63717 -1.20524,0.27802 -2.41943,0.51936 -3.6387,0.72744 -0.72775,-0.72744 -0.72775,-0.72744 -0.81871,-2.54603 0.091,-1.81858 0.091,-1.81858 0.81871,-2.54602 z"
     fill="#35302f"
     id="path68"
     style="stroke-width:0.727581" />
  <path
     d="m 300.0861,274.83883 c 1.20078,0.24007 2.40156,0.48011 3.63871,0.72744 0,1.20027 0,2.40054 0,3.63719 -1.36451,0.45465 -1.36451,0.45465 -2.91096,0.72743 -0.48032,-0.48009 -0.96062,-0.96021 -1.45548,-1.45486 0.2729,-1.90953 0.2729,-1.90953 0.72773,-3.6372 z"
     fill="#3e3b38"
     id="path69"
     style="stroke-width:0.727581" />
  <path
     d="m 262.97127,389.7738 c 3.04826,0.55346 5.98556,1.36629 8.96031,2.22776 1.36917,0.39525 1.36917,0.39525 2.766,0.79849 1.03989,0.30241 1.03989,0.30241 2.10078,0.61093 -1.12857,0.82972 -1.12857,0.82972 -2.91097,1.45487 -1.86135,-0.45079 -3.46452,-0.94649 -5.23064,-1.63674 -0.46672,-0.16784 -0.93342,-0.33569 -1.41427,-0.50863 -3.44026,-1.28547 -3.44026,-1.28547 -4.27121,-2.94668 z"
     fill="#9d3f37"
     id="path70"
     style="stroke-width:0.727581" />
  <path
     d="m 443.45128,280.65833 c 0.24015,0 0.4803,0 0.72773,0 0.99704,4.98312 0.99704,9.56561 0,14.54873 -0.24014,0 -0.4803,0 -0.72773,0 -0.14134,-2.15178 -0.27703,-4.30366 -0.40936,-6.456 -0.0408,-0.61233 -0.0816,-1.22465 -0.12366,-1.85553 -0.0351,-0.58607 -0.0704,-1.17213 -0.10659,-1.77597 -0.0342,-0.54094 -0.0686,-1.08188 -0.10395,-1.63921 0.0158,-1.36714 0.0158,-1.36714 0.74356,-2.82202 z"
     fill="#a4423b"
     id="path71"
     style="stroke-width:0.727581" />
  <path
     d="m 364.85513,222.46341 c 1.00112,0.93814 1.9705,1.9109 2.91098,2.90975 0,0.4801 0,0.96022 0,1.45487 0.48031,0 0.96062,0 1.45549,0 2.4951,5.29989 2.4951,5.29989 2.18322,8.72924 -2.06224,-2.33025 -2.56206,-4.20521 -2.91097,-7.27437 -0.72047,-0.24005 -1.44093,-0.4801 -2.18322,-0.72744 -0.8642,-2.59148 -0.8642,-2.59148 -1.4555,-5.09205 z"
     fill="#bb6344"
     id="path72"
     style="stroke-width:0.727581" />
  <path
     d="m 276.07062,230.46522 c 0.24015,0 0.48031,0 0.72774,0 0.25701,3.59661 -0.50757,5.58031 -2.18323,8.72923 -0.50874,1.99007 -0.50874,1.99007 -0.72774,3.63718 -0.24015,0 -0.48031,0 -0.72774,0 -0.35467,-4.87474 0.67165,-8.04953 2.91097,-12.36641 z"
     fill="#736939"
     id="path73"
     style="stroke-width:0.727581" />
  <path
     d="m 431.07965,418.14381 c -1.45547,1.45487 -1.45547,1.45487 -3.04741,2.00045 -2.82884,1.25675 -4.87421,3.19748 -7.14097,5.27392 0.98451,-3.22067 2.35279,-4.62875 5.09419,-6.54693 1.79229,-0.89576 3.11438,-0.77951 5.09419,-0.72744 z"
     fill="#55524b"
     id="path74"
     style="stroke-width:0.727581" />
  <path
     d="m 339.38417,239.92189 c 2.87421,0.45694 5.23895,1.35634 7.86871,2.59149 1.06522,0.49652 1.06522,0.49652 2.15195,1.00307 0.8035,0.38118 0.8035,0.38118 1.62322,0.77005 -2.40473,0.81748 -3.6756,0.65146 -6.00388,-0.31825 -0.51407,-0.2091 -1.02817,-0.41822 -1.55781,-0.63366 -0.38651,-0.16598 -0.77301,-0.33195 -1.17121,-0.50296 0,-0.48011 0,-0.96022 0,-1.45487 -0.96063,-0.24005 -1.92125,-0.48011 -2.91098,-0.72743 0,-0.24006 0,-0.48012 0,-0.72744 z"
     fill="#ad5435"
     id="path75"
     style="stroke-width:0.727581" />
  <path
     d="m 230.95062,226.1006 c -1.00565,2.33539 -2.12808,3.67308 -4.09355,5.27391 -0.6895,0.56825 -0.6895,0.56825 -1.39294,1.14798 -0.35085,0.28131 -0.70171,0.56263 -1.0632,0.85247 0.4213,-2.39148 1.12677,-3.59115 2.86549,-5.27391 0.38181,-0.37884 0.76362,-0.75767 1.157,-1.14799 1.07171,-0.85246 1.07171,-0.85246 2.5272,-0.85246 z"
     fill="#952a22"
     id="path76"
     style="stroke-width:0.727581" />
  <path
     d="m 432.53514,246.46881 c 0.48032,0 0.96063,0 1.45549,0 2.66385,3.3499 3.89739,6.83322 5.09419,10.91155 -0.72046,0.36009 -0.72046,0.36009 -1.45549,0.72744 -1.68107,-3.84087 -3.36215,-7.68173 -5.09419,-11.63899 z"
     fill="#fbe0d7"
     id="path77"
     style="stroke-width:0.727581" />
  <path
     d="m 293.53642,243.55906 c 1.50097,0.31826 1.50097,0.31826 2.91098,0.72744 -4.54965,2.08748 -8.07538,3.28175 -13.09936,2.90976 0,-0.24006 0,-0.48011 0,-0.72745 3.15316,-1.1531 6.14101,-1.72686 9.46064,-2.18231 0.24015,-0.24005 0.48032,-0.4801 0.72774,-0.72744 z"
     fill="#a05134"
     id="path78"
     style="stroke-width:0.727581" />
  <path
     d="m 265.15448,431.96511 c 2.18323,2.1823 2.18323,2.1823 2.91098,4.36461 -0.48031,0 -0.96062,0 -1.45549,0 -0.24015,2.88065 -0.48031,5.76131 -0.72774,8.72924 -0.24016,0 -0.48031,0 -0.72775,0 0,-4.32097 0,-8.64195 0,-13.09385 z"
     fill="#f4f0e5"
     id="path79"
     style="stroke-width:0.727581" />
  <path
     d="m 276.79836,214.46161 c 3.25184,-0.15478 5.69286,0.29725 8.7329,1.45488 -0.24015,0.96021 -0.48031,1.92043 -0.72773,2.90974 -0.48031,0 -0.96063,0 -1.45549,0 0,-0.72016 0,-1.44032 0,-2.18231 -0.54036,0.0451 -1.08069,0.09 -1.63742,0.1364 -2.33156,-0.15891 -3.19501,-0.79291 -4.91226,-2.31871 z"
     fill="#ac5034"
     id="path80"
     style="stroke-width:0.727581" />
  <path
     d="m 270.24869,210.09699 c 1.68108,0.24006 3.36217,0.48011 5.09419,0.72745 0.24015,0.72016 0.4803,1.44032 0.72774,2.1823 0.72046,0.24006 1.44093,0.48011 2.18323,0.72744 -1.28492,0.4717 -1.28492,0.4717 -2.91097,0.72743 -1.39863,-0.69902 -1.39863,-0.69902 -2.72903,-1.72766 -0.44653,-0.3357 -0.89307,-0.6714 -1.35314,-1.01727 -0.33398,-0.29444 -0.66794,-0.58888 -1.01202,-0.89224 0,-0.24006 0,-0.48011 0,-0.72745 z"
     fill="#846838"
     id="path81"
     style="stroke-width:0.727581" />
  <path
     d="m 279.70933,285.75039 c 0.24015,0.48011 0.48031,0.96021 0.72774,1.45487 -1.06698,2.74252 -2.28077,5.39149 -3.63871,8.0018 -0.48031,0 -0.96062,0 -1.45548,0 1.02824,-3.51169 2.49596,-6.34051 4.36645,-9.45667 z"
     fill="#fbdfde"
     id="path82"
     style="stroke-width:0.727581" />
  <path
     d="m 321.19062,226.82803 c 0.96062,0 1.92124,0 2.91098,0 0,0.48011 0,0.96022 0,1.45487 -0.57038,0.06 -1.14075,0.12003 -1.7284,0.18186 -0.6304,0.18005 -1.26081,0.36009 -1.91033,0.54559 -0.49755,0.96361 -0.98218,1.93398 -1.45547,2.90973 -1.91033,0.9093 -1.91033,0.9093 -3.63872,1.45488 0.69668,-0.81901 1.39428,-1.63722 2.09226,-2.4551 0.38838,-0.45572 0.77676,-0.91145 1.1769,-1.38099 0.81662,-0.93471 1.67492,-1.83335 2.55278,-2.71084 z"
     fill="#ae4d33"
     id="path83"
     style="stroke-width:0.727581" />
  <path
     d="m 372.13256,327.21426 c 0.69474,1.57831 0.83255,2.59207 0.28997,4.23675 -0.55101,1.26884 -1.14586,2.51842 -1.74545,3.76505 -0.48031,0 -0.96062,0 -1.45548,0 0.34587,-1.19806 0.69522,-2.39511 1.04612,-3.59171 0.19419,-0.66671 0.38837,-1.33343 0.58846,-2.02034 0.54864,-1.66231 0.54864,-1.66231 1.27638,-2.38975 z"
     fill="#963430"
     id="path84"
     style="stroke-width:0.727581" />
  <path
     d="m 279.18911,311.13963 c 1.00049,0.0127 1.00049,0.0127 2.02119,0.0256 0.66887,0.007 1.33774,0.0132 2.02688,0.0199 0.51689,0.008 1.03379,0.0169 1.56635,0.0256 0,0.24005 0,0.48011 0,0.72743 -1.92125,0.24006 -3.84248,0.48012 -5.82195,0.72744 -0.24015,0.96022 -0.4803,1.92044 -0.72773,2.90975 -0.48032,0 -0.96063,0 -1.45549,0 -0.0311,-1.21199 -0.0295,-2.42516 0,-3.63719 0.72774,-0.72743 0.72774,-0.72743 2.39075,-0.79847 z"
     fill="#514f4c"
     id="path85"
     style="stroke-width:0.727581" />
  <path
     d="m 286.259,277.74858 c 0.24016,0.72017 0.48032,1.44033 0.72775,2.18231 -1.44093,1.44034 -2.88186,2.88066 -4.36645,4.36462 -0.48031,-0.24005 -0.96062,-0.48011 -1.45548,-0.72743 1.68108,-1.92043 3.36216,-3.84087 5.09418,-5.8195 z"
     fill="#fce5e4"
     id="path86"
     style="stroke-width:0.727581" />
  <path
     d="m 354.66675,273.38397 c 2.86832,1.213 4.94085,3.07494 7.27743,5.09206 -0.48031,0.4801 -0.96063,0.96021 -1.45549,1.45486 -0.97249,-0.95255 -1.94233,-1.9078 -2.91096,-2.86428 -0.54036,-0.53168 -1.0807,-1.06337 -1.63742,-1.61116 -1.27356,-1.34405 -1.27356,-1.34405 -1.27356,-2.07148 z"
     fill="#953835"
     id="path87"
     style="stroke-width:0.727581" />
  <path
     d="m 358.30546,291.56988 c 0.96062,0.96022 1.92124,1.92043 2.91097,2.90974 -1.20078,0.24006 -2.40155,0.48011 -3.6387,0.72744 0,-2.90975 0,-2.90975 0.72773,-3.63718 z"
     fill="#4f4c4a"
     id="path88"
     style="stroke-width:0.727581" />
  <path
     d="m 292.80868,271.92909 c 0.48032,0.24005 0.96062,0.48011 1.45549,0.72744 -1.55357,2.32937 -2.6402,3.10823 -5.0942,4.36462 -0.72047,0 -1.44092,0 -2.18322,0 1.92123,-1.68039 3.84248,-3.36076 5.82193,-5.09206 z"
     fill="#fadddd"
     id="path89"
     style="stroke-width:0.727581" />
  <path
     d="m 295.71965,269.01935 c 0.48031,0.24005 0.96062,0.48011 1.45549,0.72743 -0.93672,0.73165 -1.87749,1.45812 -2.82001,2.18231 -0.78518,0.60764 -0.78518,0.60764 -1.58623,1.22755 -1.4157,0.95476 -1.4157,0.95476 -2.87118,0.95476 0,-0.72016 0,-1.44032 0,-2.18231 0.93625,-0.5071 1.87715,-1.00563 2.82,-1.50034 0.52346,-0.2785 1.04693,-0.55699 1.58625,-0.84394 0.46717,-0.1866 0.93436,-0.37321 1.41568,-0.56546 z"
     fill="#8d2d2c"
     id="path90"
     style="stroke-width:0.727581" />
  <path
     d="m 335.74547,263.19985 c 2.50463,0.25678 3.68872,0.76076 5.82193,2.18231 -2.8649,0.95457 -4.45733,0.17674 -7.27742,-0.72743 0.48031,-0.48012 0.96062,-0.96022 1.45549,-1.45488 z"
     fill="#9e3c39"
     id="path91"
     style="stroke-width:0.727581" />
  <path
     d="m 381.5932,206.45981 c 2.27268,0.35338 4.36341,0.72642 6.54968,1.45487 0,0.48012 0,0.96022 0,1.45488 -3.24208,-0.72016 -3.24208,-0.72016 -6.54968,-1.45488 0,-0.4801 0,-0.96021 0,-1.45487 z"
     fill="#f2d0c5"
     id="path92"
     style="stroke-width:0.727581" />
  <path
     d="m 416.52482,227.55546 c 2.45046,1.01357 3.62849,2.16699 5.0942,4.36462 -2.18323,0 -2.18323,0 -3.77517,-1.36393 -1.31903,-1.5458 -1.31903,-1.5458 -1.31903,-3.00069 z"
     fill="#a0473c"
     id="path93"
     style="stroke-width:0.727581" />
  <path
     d="m 278.98158,221.73598 c 0.48032,0 0.96063,0 1.45549,0 -0.84116,2.84581 -1.71409,5.00075 -3.63871,7.27437 -0.26463,-3.08596 0.33526,-4.78775 2.18322,-7.27437 z"
     fill="#c76046"
     id="path94"
     style="stroke-width:0.727581" />
  <path
     d="m 300.0861,347.58248 c 0.96063,0 1.92124,0 2.91097,0 -0.4803,1.20027 -0.96062,2.40054 -1.45548,3.63718 -0.48031,0 -0.96062,0 -1.45549,0 -0.40935,-1.4094 -0.40935,-1.4094 -0.72773,-2.90974 0.24015,-0.24006 0.4803,-0.48011 0.72773,-0.72744 z"
     fill="#4e4b4a"
     id="path95"
     style="stroke-width:0.727581" />
  <path
     d="m 276.79836,335.9435 c 2.91097,1.45487 2.91097,1.45487 3.86612,2.86428 0.50034,1.50033 0.50034,1.50033 -0.22741,3.68264 -1.20077,-2.16047 -2.40155,-4.32097 -3.63871,-6.54692 z"
     fill="#f9dcda"
     id="path96"
     style="stroke-width:0.727581" />
  <path
     d="m 312.45772,322.12221 c 0.72046,0.24005 1.44093,0.48011 2.18323,0.72744 -1.01398,2.44943 -2.1679,3.62695 -4.36646,5.09205 0.33772,-0.63015 0.33772,-0.63015 0.68226,-1.27302 0.71926,-1.52247 1.14937,-2.90636 1.50097,-4.54647 z"
     fill="#32302d"
     id="path97"
     style="stroke-width:0.727581" />
  <path
     d="m 343.75063,290.11501 c 0.24015,0.72016 0.4803,1.44032 0.72774,2.1823 -0.96062,0.72017 -1.92125,1.44033 -2.91097,2.18231 0,-2.18231 0,-2.18231 1.0916,-3.40986 0.54037,-0.4726 0.54037,-0.4726 1.09163,-0.95475 z"
     fill="#464240"
     id="path98"
     style="stroke-width:0.727581" />
  <path
     d="m 284.80353,290.11501 c 0.96061,0.24005 1.92124,0.4801 2.91097,0.72744 -0.24017,0.96021 -0.48032,1.92042 -0.72775,2.90974 -0.72047,0 -1.44093,0 -2.18322,0 0,-1.20027 0,-2.40054 0,-3.63718 z"
     fill="#413c3b"
     id="path99"
     style="stroke-width:0.727581" />
</svg>
